<svg width="622" height="283" viewBox="0 0 622 283" fill="none" xmlns="http://www.w3.org/2000/svg">
<g clip-path="url(#clip0_21_37)">
<rect width="622" height="283" fill="white"/>
<path d="M181.812 241.336C181.812 241.96 181.656 242.482 181.344 242.902C181.032 243.322 180.588 243.64 180.012 243.856C179.436 244.072 178.752 244.18 177.96 244.18C177.288 244.18 176.706 244.126 176.214 244.018C175.734 243.91 175.308 243.76 174.936 243.568V242.128C175.32 242.32 175.782 242.5 176.322 242.668C176.874 242.824 177.432 242.902 177.996 242.902C178.8 242.902 179.382 242.776 179.742 242.524C180.102 242.26 180.282 241.912 180.282 241.48C180.282 241.24 180.216 241.024 180.084 240.832C179.952 240.64 179.712 240.448 179.364 240.256C179.028 240.064 178.542 239.848 177.906 239.608C177.282 239.368 176.748 239.128 176.304 238.888C175.86 238.648 175.518 238.36 175.278 238.024C175.038 237.688 174.918 237.256 174.918 236.728C174.918 235.912 175.248 235.282 175.908 234.838C176.58 234.394 177.456 234.172 178.536 234.172C179.124 234.172 179.67 234.232 180.174 234.352C180.69 234.46 181.17 234.616 181.614 234.82L181.074 236.08C180.81 235.96 180.528 235.858 180.228 235.774C179.94 235.678 179.646 235.606 179.346 235.558C179.046 235.498 178.74 235.468 178.428 235.468C177.78 235.468 177.282 235.576 176.934 235.792C176.598 235.996 176.43 236.278 176.43 236.638C176.43 236.902 176.508 237.13 176.664 237.322C176.82 237.502 177.078 237.682 177.438 237.862C177.81 238.03 178.302 238.234 178.914 238.474C179.526 238.702 180.048 238.936 180.48 239.176C180.912 239.416 181.242 239.71 181.47 240.058C181.698 240.394 181.812 240.82 181.812 241.336ZM185.727 234.334C185.727 234.562 185.715 234.796 185.691 235.036C185.679 235.276 185.661 235.492 185.637 235.684H185.745C185.949 235.348 186.207 235.072 186.519 234.856C186.831 234.64 187.179 234.478 187.563 234.37C187.947 234.25 188.343 234.19 188.751 234.19C189.531 234.19 190.179 234.316 190.695 234.568C191.223 234.808 191.619 235.186 191.883 235.702C192.147 236.218 192.279 236.89 192.279 237.718V244H190.713V237.826C190.713 237.046 190.539 236.464 190.191 236.08C189.843 235.696 189.297 235.504 188.553 235.504C187.833 235.504 187.269 235.642 186.861 235.918C186.453 236.182 186.159 236.578 185.979 237.106C185.811 237.622 185.727 238.258 185.727 239.014V244H184.143V230.32H185.727V234.334ZM199.77 234.172C199.95 234.172 200.142 234.184 200.346 234.208C200.562 234.22 200.748 234.244 200.904 234.28L200.706 235.738C200.55 235.702 200.376 235.672 200.184 235.648C200.004 235.624 199.83 235.612 199.662 235.612C199.29 235.612 198.936 235.69 198.6 235.846C198.264 236.002 197.964 236.224 197.7 236.512C197.436 236.788 197.226 237.124 197.07 237.52C196.926 237.916 196.854 238.36 196.854 238.852V244H195.27V234.352H196.566L196.746 236.116H196.818C197.022 235.756 197.268 235.432 197.556 235.144C197.844 234.844 198.174 234.61 198.546 234.442C198.918 234.262 199.326 234.172 199.77 234.172ZM204.29 234.352V244H202.706V234.352H204.29ZM203.516 230.734C203.756 230.734 203.966 230.818 204.146 230.986C204.338 231.142 204.434 231.394 204.434 231.742C204.434 232.078 204.338 232.33 204.146 232.498C203.966 232.666 203.756 232.75 203.516 232.75C203.252 232.75 203.03 232.666 202.85 232.498C202.67 232.33 202.58 232.078 202.58 231.742C202.58 231.394 202.67 231.142 202.85 230.986C203.03 230.818 203.252 230.734 203.516 230.734ZM211.99 234.172C213.142 234.172 214.012 234.454 214.6 235.018C215.188 235.57 215.482 236.47 215.482 237.718V244H213.916V237.826C213.916 237.046 213.742 236.464 213.394 236.08C213.046 235.696 212.5 235.504 211.756 235.504C210.688 235.504 209.95 235.804 209.542 236.404C209.134 237.004 208.93 237.868 208.93 238.996V244H207.346V234.352H208.624L208.858 235.666H208.948C209.164 235.33 209.428 235.054 209.74 234.838C210.064 234.61 210.418 234.442 210.802 234.334C211.186 234.226 211.582 234.172 211.99 234.172ZM220.039 237.466C220.039 237.658 220.027 237.91 220.003 238.222C219.991 238.534 219.979 238.804 219.967 239.032H220.039C220.111 238.936 220.219 238.798 220.363 238.618C220.507 238.438 220.651 238.258 220.795 238.078C220.951 237.886 221.083 237.73 221.191 237.61L224.269 234.352H226.123L222.217 238.474L226.393 244H224.485L221.137 239.5L220.039 240.454V244H218.473V230.32H220.039V237.466Z" fill="black"/>
<path d="M507.256 200.172C508.084 200.172 508.792 200.352 509.38 200.712C509.98 201.072 510.436 201.582 510.748 202.242C511.072 202.89 511.234 203.652 511.234 204.528V205.482H504.628C504.652 206.574 504.928 207.408 505.456 207.984C505.996 208.548 506.746 208.83 507.706 208.83C508.318 208.83 508.858 208.776 509.326 208.668C509.806 208.548 510.298 208.38 510.802 208.164V209.55C510.31 209.766 509.824 209.922 509.344 210.018C508.864 210.126 508.294 210.18 507.634 210.18C506.722 210.18 505.912 209.994 505.204 209.622C504.508 209.25 503.962 208.698 503.566 207.966C503.182 207.222 502.99 206.316 502.99 205.248C502.99 204.192 503.164 203.286 503.512 202.53C503.872 201.774 504.37 201.192 505.006 200.784C505.654 200.376 506.404 200.172 507.256 200.172ZM507.238 201.468C506.482 201.468 505.882 201.714 505.438 202.206C505.006 202.686 504.748 203.358 504.664 204.222H509.578C509.578 203.67 509.494 203.19 509.326 202.782C509.158 202.374 508.9 202.056 508.552 201.828C508.216 201.588 507.778 201.468 507.238 201.468ZM515.625 205.068L512.295 200.352H514.095L516.579 203.988L519.045 200.352H520.827L517.497 205.068L521.007 210H519.207L516.579 206.148L513.915 210H512.133L515.625 205.068ZM527.456 200.172C528.644 200.172 529.598 200.586 530.318 201.414C531.05 202.242 531.416 203.49 531.416 205.158C531.416 206.25 531.248 207.174 530.912 207.93C530.588 208.674 530.126 209.238 529.526 209.622C528.938 209.994 528.242 210.18 527.438 210.18C526.946 210.18 526.508 210.114 526.124 209.982C525.74 209.85 525.41 209.682 525.134 209.478C524.87 209.262 524.642 209.028 524.45 208.776H524.342C524.366 208.98 524.39 209.238 524.414 209.55C524.438 209.862 524.45 210.132 524.45 210.36V214.32H522.866V200.352H524.162L524.378 201.666H524.45C524.642 201.39 524.87 201.138 525.134 200.91C525.41 200.682 525.734 200.502 526.106 200.37C526.49 200.238 526.94 200.172 527.456 200.172ZM527.168 201.504C526.52 201.504 525.998 201.63 525.602 201.882C525.206 202.122 524.918 202.488 524.738 202.98C524.558 203.472 524.462 204.096 524.45 204.852V205.158C524.45 205.95 524.534 206.622 524.702 207.174C524.87 207.726 525.152 208.146 525.548 208.434C525.956 208.722 526.508 208.866 527.204 208.866C527.792 208.866 528.272 208.704 528.644 208.38C529.028 208.056 529.31 207.618 529.49 207.066C529.682 206.502 529.778 205.86 529.778 205.14C529.778 204.036 529.562 203.154 529.13 202.494C528.71 201.834 528.056 201.504 527.168 201.504ZM537.594 200.19C538.77 200.19 539.64 200.448 540.204 200.964C540.768 201.48 541.05 202.302 541.05 203.43V210H539.898L539.592 208.632H539.52C539.244 208.98 538.956 209.274 538.656 209.514C538.368 209.742 538.032 209.91 537.648 210.018C537.276 210.126 536.82 210.18 536.28 210.18C535.704 210.18 535.182 210.078 534.714 209.874C534.258 209.67 533.898 209.358 533.634 208.938C533.37 208.506 533.238 207.966 533.238 207.318C533.238 206.358 533.616 205.62 534.372 205.104C535.128 204.576 536.292 204.288 537.864 204.24L539.502 204.186V203.61C539.502 202.806 539.328 202.248 538.98 201.936C538.632 201.624 538.14 201.468 537.504 201.468C537 201.468 536.52 201.546 536.064 201.702C535.608 201.846 535.182 202.014 534.786 202.206L534.3 201.018C534.72 200.79 535.218 200.598 535.794 200.442C536.37 200.274 536.97 200.19 537.594 200.19ZM538.062 205.338C536.862 205.386 536.028 205.578 535.56 205.914C535.104 206.25 534.876 206.724 534.876 207.336C534.876 207.876 535.038 208.272 535.362 208.524C535.698 208.776 536.124 208.902 536.64 208.902C537.456 208.902 538.134 208.68 538.674 208.236C539.214 207.78 539.484 207.084 539.484 206.148V205.284L538.062 205.338ZM548.674 200.172C549.826 200.172 550.696 200.454 551.284 201.018C551.872 201.57 552.166 202.47 552.166 203.718V210H550.6V203.826C550.6 203.046 550.426 202.464 550.078 202.08C549.73 201.696 549.184 201.504 548.44 201.504C547.372 201.504 546.634 201.804 546.226 202.404C545.818 203.004 545.614 203.868 545.614 204.996V210H544.03V200.352H545.308L545.542 201.666H545.632C545.848 201.33 546.112 201.054 546.424 200.838C546.748 200.61 547.102 200.442 547.486 200.334C547.87 200.226 548.266 200.172 548.674 200.172ZM561.439 207.336C561.439 207.96 561.283 208.482 560.971 208.902C560.659 209.322 560.215 209.64 559.639 209.856C559.063 210.072 558.379 210.18 557.587 210.18C556.915 210.18 556.333 210.126 555.841 210.018C555.361 209.91 554.935 209.76 554.563 209.568V208.128C554.947 208.32 555.409 208.5 555.949 208.668C556.501 208.824 557.059 208.902 557.623 208.902C558.427 208.902 559.009 208.776 559.369 208.524C559.729 208.26 559.909 207.912 559.909 207.48C559.909 207.24 559.843 207.024 559.711 206.832C559.579 206.64 559.339 206.448 558.991 206.256C558.655 206.064 558.169 205.848 557.533 205.608C556.909 205.368 556.375 205.128 555.931 204.888C555.487 204.648 555.145 204.36 554.905 204.024C554.665 203.688 554.545 203.256 554.545 202.728C554.545 201.912 554.875 201.282 555.535 200.838C556.207 200.394 557.083 200.172 558.163 200.172C558.751 200.172 559.297 200.232 559.801 200.352C560.317 200.46 560.797 200.616 561.241 200.82L560.701 202.08C560.437 201.96 560.155 201.858 559.855 201.774C559.567 201.678 559.273 201.606 558.973 201.558C558.673 201.498 558.367 201.468 558.055 201.468C557.407 201.468 556.909 201.576 556.561 201.792C556.225 201.996 556.057 202.278 556.057 202.638C556.057 202.902 556.135 203.13 556.291 203.322C556.447 203.502 556.705 203.682 557.065 203.862C557.437 204.03 557.929 204.234 558.541 204.474C559.153 204.702 559.675 204.936 560.107 205.176C560.539 205.416 560.869 205.71 561.097 206.058C561.325 206.394 561.439 206.82 561.439 207.336ZM565.354 200.352V210H563.77V200.352H565.354ZM564.58 196.734C564.82 196.734 565.03 196.818 565.21 196.986C565.402 197.142 565.498 197.394 565.498 197.742C565.498 198.078 565.402 198.33 565.21 198.498C565.03 198.666 564.82 198.75 564.58 198.75C564.316 198.75 564.094 198.666 563.914 198.498C563.734 198.33 563.644 198.078 563.644 197.742C563.644 197.394 563.734 197.142 563.914 196.986C564.094 196.818 564.316 196.734 564.58 196.734ZM576.799 205.158C576.799 205.962 576.691 206.676 576.475 207.3C576.271 207.912 575.971 208.434 575.575 208.866C575.191 209.298 574.717 209.628 574.153 209.856C573.601 210.072 572.983 210.18 572.299 210.18C571.663 210.18 571.075 210.072 570.535 209.856C569.995 209.628 569.527 209.298 569.131 208.866C568.735 208.434 568.423 207.912 568.195 207.3C567.979 206.676 567.871 205.962 567.871 205.158C567.871 204.09 568.051 203.19 568.411 202.458C568.771 201.714 569.287 201.15 569.959 200.766C570.631 200.37 571.429 200.172 572.353 200.172C573.229 200.172 573.997 200.37 574.657 200.766C575.329 201.15 575.851 201.714 576.223 202.458C576.607 203.19 576.799 204.09 576.799 205.158ZM569.509 205.158C569.509 205.914 569.605 206.574 569.797 207.138C570.001 207.69 570.313 208.116 570.733 208.416C571.153 208.716 571.687 208.866 572.335 208.866C572.983 208.866 573.517 208.716 573.937 208.416C574.357 208.116 574.663 207.69 574.855 207.138C575.059 206.574 575.161 205.914 575.161 205.158C575.161 204.39 575.059 203.736 574.855 203.196C574.651 202.656 574.339 202.242 573.919 201.954C573.511 201.654 572.977 201.504 572.317 201.504C571.333 201.504 570.619 201.828 570.175 202.476C569.731 203.124 569.509 204.018 569.509 205.158ZM583.953 200.172C585.105 200.172 585.975 200.454 586.563 201.018C587.151 201.57 587.445 202.47 587.445 203.718V210H585.879V203.826C585.879 203.046 585.705 202.464 585.357 202.08C585.009 201.696 584.463 201.504 583.719 201.504C582.651 201.504 581.913 201.804 581.505 202.404C581.097 203.004 580.893 203.868 580.893 204.996V210H579.309V200.352H580.587L580.821 201.666H580.911C581.127 201.33 581.391 201.054 581.703 200.838C582.027 200.61 582.381 200.442 582.765 200.334C583.149 200.226 583.545 200.172 583.953 200.172Z" fill="black"/>
<path d="M391.03 200.172C391.21 200.172 391.402 200.184 391.606 200.208C391.822 200.22 392.008 200.244 392.164 200.28L391.966 201.738C391.81 201.702 391.636 201.672 391.444 201.648C391.264 201.624 391.09 201.612 390.922 201.612C390.55 201.612 390.196 201.69 389.86 201.846C389.524 202.002 389.224 202.224 388.96 202.512C388.696 202.788 388.486 203.124 388.33 203.52C388.186 203.916 388.114 204.36 388.114 204.852V210H386.53V200.352H387.826L388.006 202.116H388.078C388.282 201.756 388.528 201.432 388.816 201.144C389.104 200.844 389.434 200.61 389.806 200.442C390.178 200.262 390.586 200.172 391.03 200.172ZM397.34 200.172C398.168 200.172 398.876 200.352 399.464 200.712C400.064 201.072 400.52 201.582 400.832 202.242C401.156 202.89 401.318 203.652 401.318 204.528V205.482H394.712C394.736 206.574 395.012 207.408 395.54 207.984C396.08 208.548 396.83 208.83 397.79 208.83C398.402 208.83 398.942 208.776 399.41 208.668C399.89 208.548 400.382 208.38 400.886 208.164V209.55C400.394 209.766 399.908 209.922 399.428 210.018C398.948 210.126 398.378 210.18 397.718 210.18C396.806 210.18 395.996 209.994 395.288 209.622C394.592 209.25 394.046 208.698 393.65 207.966C393.266 207.222 393.074 206.316 393.074 205.248C393.074 204.192 393.248 203.286 393.596 202.53C393.956 201.774 394.454 201.192 395.09 200.784C395.738 200.376 396.488 200.172 397.34 200.172ZM397.322 201.468C396.566 201.468 395.966 201.714 395.522 202.206C395.09 202.686 394.832 203.358 394.748 204.222H399.662C399.662 203.67 399.578 203.19 399.41 202.782C399.242 202.374 398.984 202.056 398.636 201.828C398.3 201.588 397.862 201.468 397.322 201.468ZM408.22 201.576H405.79V210H404.206V201.576H402.514V200.838L404.206 200.298V199.74C404.206 198.912 404.326 198.24 404.566 197.724C404.818 197.208 405.178 196.83 405.646 196.59C406.114 196.35 406.678 196.23 407.338 196.23C407.722 196.23 408.07 196.266 408.382 196.338C408.706 196.398 408.982 196.47 409.21 196.554L408.796 197.796C408.604 197.736 408.382 197.676 408.13 197.616C407.878 197.556 407.62 197.526 407.356 197.526C406.828 197.526 406.432 197.706 406.168 198.066C405.916 198.414 405.79 198.966 405.79 199.722V200.352H408.22V201.576ZM411.55 210H409.966V196.32H411.55V210ZM418.328 200.172C419.156 200.172 419.864 200.352 420.452 200.712C421.052 201.072 421.508 201.582 421.82 202.242C422.144 202.89 422.306 203.652 422.306 204.528V205.482H415.7C415.724 206.574 416 207.408 416.528 207.984C417.068 208.548 417.818 208.83 418.778 208.83C419.39 208.83 419.93 208.776 420.398 208.668C420.878 208.548 421.37 208.38 421.874 208.164V209.55C421.382 209.766 420.896 209.922 420.416 210.018C419.936 210.126 419.366 210.18 418.706 210.18C417.794 210.18 416.984 209.994 416.276 209.622C415.58 209.25 415.034 208.698 414.638 207.966C414.254 207.222 414.062 206.316 414.062 205.248C414.062 204.192 414.236 203.286 414.584 202.53C414.944 201.774 415.442 201.192 416.078 200.784C416.726 200.376 417.476 200.172 418.328 200.172ZM418.31 201.468C417.554 201.468 416.954 201.714 416.51 202.206C416.078 202.686 415.82 203.358 415.736 204.222H420.65C420.65 203.67 420.566 203.19 420.398 202.782C420.23 202.374 419.972 202.056 419.624 201.828C419.288 201.588 418.85 201.468 418.31 201.468ZM428.632 210.18C427.78 210.18 427.018 210.006 426.346 209.658C425.686 209.31 425.164 208.77 424.78 208.038C424.408 207.306 424.222 206.37 424.222 205.23C424.222 204.042 424.42 203.076 424.816 202.332C425.212 201.588 425.746 201.042 426.418 200.694C427.102 200.346 427.876 200.172 428.74 200.172C429.232 200.172 429.706 200.226 430.162 200.334C430.618 200.43 430.99 200.55 431.278 200.694L430.792 202.008C430.504 201.9 430.168 201.798 429.784 201.702C429.4 201.606 429.04 201.558 428.704 201.558C428.056 201.558 427.522 201.696 427.102 201.972C426.682 202.248 426.37 202.656 426.166 203.196C425.962 203.736 425.86 204.408 425.86 205.212C425.86 205.98 425.962 206.634 426.166 207.174C426.37 207.714 426.676 208.122 427.084 208.398C427.492 208.674 428.002 208.812 428.614 208.812C429.142 208.812 429.604 208.758 430 208.65C430.408 208.542 430.78 208.41 431.116 208.254V209.658C430.792 209.826 430.432 209.952 430.036 210.036C429.652 210.132 429.184 210.18 428.632 210.18ZM436.633 208.884C436.873 208.884 437.119 208.866 437.371 208.83C437.623 208.782 437.827 208.734 437.983 208.686V209.892C437.815 209.976 437.575 210.042 437.263 210.09C436.951 210.15 436.651 210.18 436.363 210.18C435.859 210.18 435.391 210.096 434.959 209.928C434.539 209.748 434.197 209.442 433.933 209.01C433.669 208.578 433.537 207.972 433.537 207.192V201.576H432.169V200.82L433.555 200.19L434.185 198.138H435.121V200.352H437.911V201.576H435.121V207.156C435.121 207.744 435.259 208.182 435.535 208.47C435.823 208.746 436.189 208.884 436.633 208.884ZM441.499 200.352V210H439.915V200.352H441.499ZM440.725 196.734C440.965 196.734 441.175 196.818 441.355 196.986C441.547 197.142 441.643 197.394 441.643 197.742C441.643 198.078 441.547 198.33 441.355 198.498C441.175 198.666 440.965 198.75 440.725 198.75C440.461 198.75 440.239 198.666 440.059 198.498C439.879 198.33 439.789 198.078 439.789 197.742C439.789 197.394 439.879 197.142 440.059 196.986C440.239 196.818 440.461 196.734 440.725 196.734ZM452.943 205.158C452.943 205.962 452.835 206.676 452.619 207.3C452.415 207.912 452.115 208.434 451.719 208.866C451.335 209.298 450.861 209.628 450.297 209.856C449.745 210.072 449.127 210.18 448.443 210.18C447.807 210.18 447.219 210.072 446.679 209.856C446.139 209.628 445.671 209.298 445.275 208.866C444.879 208.434 444.567 207.912 444.339 207.3C444.123 206.676 444.015 205.962 444.015 205.158C444.015 204.09 444.195 203.19 444.555 202.458C444.915 201.714 445.431 201.15 446.103 200.766C446.775 200.37 447.573 200.172 448.497 200.172C449.373 200.172 450.141 200.37 450.801 200.766C451.473 201.15 451.995 201.714 452.367 202.458C452.751 203.19 452.943 204.09 452.943 205.158ZM445.653 205.158C445.653 205.914 445.749 206.574 445.941 207.138C446.145 207.69 446.457 208.116 446.877 208.416C447.297 208.716 447.831 208.866 448.479 208.866C449.127 208.866 449.661 208.716 450.081 208.416C450.501 208.116 450.807 207.69 450.999 207.138C451.203 206.574 451.305 205.914 451.305 205.158C451.305 204.39 451.203 203.736 450.999 203.196C450.795 202.656 450.483 202.242 450.063 201.954C449.655 201.654 449.121 201.504 448.461 201.504C447.477 201.504 446.763 201.828 446.319 202.476C445.875 203.124 445.653 204.018 445.653 205.158ZM460.098 200.172C461.25 200.172 462.12 200.454 462.708 201.018C463.296 201.57 463.59 202.47 463.59 203.718V210H462.024V203.826C462.024 203.046 461.85 202.464 461.502 202.08C461.154 201.696 460.608 201.504 459.864 201.504C458.796 201.504 458.058 201.804 457.65 202.404C457.242 203.004 457.038 203.868 457.038 204.996V210H455.454V200.352H456.732L456.966 201.666H457.056C457.272 201.33 457.536 201.054 457.848 200.838C458.172 200.61 458.526 200.442 458.91 200.334C459.294 200.226 459.69 200.172 460.098 200.172Z" fill="black"/>
<path d="M348.918 41.158C348.918 41.962 348.81 42.676 348.594 43.3C348.39 43.912 348.09 44.434 347.694 44.866C347.31 45.298 346.836 45.628 346.272 45.856C345.72 46.072 345.102 46.18 344.418 46.18C343.782 46.18 343.194 46.072 342.654 45.856C342.114 45.628 341.646 45.298 341.25 44.866C340.854 44.434 340.542 43.912 340.314 43.3C340.098 42.676 339.99 41.962 339.99 41.158C339.99 40.09 340.17 39.19 340.53 38.458C340.89 37.714 341.406 37.15 342.078 36.766C342.75 36.37 343.548 36.172 344.472 36.172C345.348 36.172 346.116 36.37 346.776 36.766C347.448 37.15 347.97 37.714 348.342 38.458C348.726 39.19 348.918 40.09 348.918 41.158ZM341.628 41.158C341.628 41.914 341.724 42.574 341.916 43.138C342.12 43.69 342.432 44.116 342.852 44.416C343.272 44.716 343.806 44.866 344.454 44.866C345.102 44.866 345.636 44.716 346.056 44.416C346.476 44.116 346.782 43.69 346.974 43.138C347.178 42.574 347.28 41.914 347.28 41.158C347.28 40.39 347.178 39.736 346.974 39.196C346.77 38.656 346.458 38.242 346.038 37.954C345.63 37.654 345.096 37.504 344.436 37.504C343.452 37.504 342.738 37.828 342.294 38.476C341.85 39.124 341.628 40.018 341.628 41.158ZM359.492 36.352V46H358.196L357.962 44.722H357.89C357.686 45.058 357.422 45.334 357.098 45.55C356.774 45.766 356.42 45.922 356.036 46.018C355.652 46.126 355.25 46.18 354.83 46.18C354.062 46.18 353.414 46.06 352.886 45.82C352.37 45.568 351.98 45.184 351.716 44.668C351.452 44.152 351.32 43.486 351.32 42.67V36.352H352.922V42.562C352.922 43.33 353.096 43.906 353.444 44.29C353.792 44.674 354.332 44.866 355.064 44.866C355.784 44.866 356.348 44.734 356.756 44.47C357.176 44.194 357.47 43.798 357.638 43.282C357.818 42.754 357.908 42.118 357.908 41.374V36.352H359.492ZM365.777 44.884C366.017 44.884 366.263 44.866 366.515 44.83C366.767 44.782 366.971 44.734 367.127 44.686V45.892C366.959 45.976 366.719 46.042 366.407 46.09C366.095 46.15 365.795 46.18 365.507 46.18C365.003 46.18 364.535 46.096 364.103 45.928C363.683 45.748 363.341 45.442 363.077 45.01C362.813 44.578 362.681 43.972 362.681 43.192V37.576H361.313V36.82L362.699 36.19L363.329 34.138H364.265V36.352L367.055 36.352V37.576L364.265 37.576V43.156C364.265 43.744 364.403 44.182 364.679 44.47C364.967 44.746 365.333 44.884 365.777 44.884ZM372.785 36.172C373.613 36.172 374.321 36.352 374.909 36.712C375.509 37.072 375.965 37.582 376.277 38.242C376.601 38.89 376.763 39.652 376.763 40.528V41.482L370.157 41.482C370.181 42.574 370.457 43.408 370.985 43.984C371.525 44.548 372.275 44.83 373.235 44.83C373.847 44.83 374.387 44.776 374.855 44.668C375.335 44.548 375.827 44.38 376.331 44.164V45.55C375.839 45.766 375.353 45.922 374.873 46.018C374.393 46.126 373.823 46.18 373.163 46.18C372.251 46.18 371.441 45.994 370.733 45.622C370.037 45.25 369.491 44.698 369.095 43.966C368.711 43.222 368.519 42.316 368.519 41.248C368.519 40.192 368.693 39.286 369.041 38.53C369.401 37.774 369.899 37.192 370.535 36.784C371.183 36.376 371.933 36.172 372.785 36.172ZM372.767 37.468C372.011 37.468 371.411 37.714 370.967 38.206C370.535 38.686 370.277 39.358 370.193 40.222H375.107C375.107 39.67 375.023 39.19 374.855 38.782C374.687 38.374 374.429 38.056 374.081 37.828C373.745 37.588 373.307 37.468 372.767 37.468ZM383.719 36.172C383.899 36.172 384.091 36.184 384.295 36.208C384.511 36.22 384.697 36.244 384.853 36.28L384.655 37.738C384.499 37.702 384.325 37.672 384.133 37.648C383.953 37.624 383.779 37.612 383.611 37.612C383.239 37.612 382.885 37.69 382.549 37.846C382.213 38.002 381.913 38.224 381.649 38.512C381.385 38.788 381.175 39.124 381.019 39.52C380.875 39.916 380.803 40.36 380.803 40.852V46H379.219V36.352H380.515L380.695 38.116H380.767C380.971 37.756 381.217 37.432 381.505 37.144C381.793 36.844 382.123 36.61 382.495 36.442C382.867 36.262 383.275 36.172 383.719 36.172ZM395.201 46.18C394.349 46.18 393.587 46.006 392.915 45.658C392.255 45.31 391.733 44.77 391.349 44.038C390.977 43.306 390.791 42.37 390.791 41.23C390.791 40.042 390.989 39.076 391.385 38.332C391.781 37.588 392.315 37.042 392.987 36.694C393.671 36.346 394.445 36.172 395.309 36.172C395.801 36.172 396.275 36.226 396.731 36.334C397.187 36.43 397.559 36.55 397.847 36.694L397.361 38.008C397.073 37.9 396.737 37.798 396.353 37.702C395.969 37.606 395.609 37.558 395.273 37.558C394.625 37.558 394.091 37.696 393.671 37.972C393.251 38.248 392.939 38.656 392.735 39.196C392.531 39.736 392.429 40.408 392.429 41.212C392.429 41.98 392.531 42.634 392.735 43.174C392.939 43.714 393.245 44.122 393.653 44.398C394.061 44.674 394.571 44.812 395.183 44.812C395.711 44.812 396.173 44.758 396.569 44.65C396.977 44.542 397.349 44.41 397.685 44.254V45.658C397.361 45.826 397.001 45.952 396.605 46.036C396.221 46.132 395.753 46.18 395.201 46.18ZM408.367 41.158C408.367 41.962 408.259 42.676 408.043 43.3C407.839 43.912 407.539 44.434 407.143 44.866C406.759 45.298 406.285 45.628 405.721 45.856C405.169 46.072 404.551 46.18 403.867 46.18C403.231 46.18 402.643 46.072 402.103 45.856C401.563 45.628 401.095 45.298 400.699 44.866C400.303 44.434 399.991 43.912 399.763 43.3C399.547 42.676 399.439 41.962 399.439 41.158C399.439 40.09 399.619 39.19 399.979 38.458C400.339 37.714 400.855 37.15 401.527 36.766C402.199 36.37 402.997 36.172 403.921 36.172C404.797 36.172 405.565 36.37 406.225 36.766C406.897 37.15 407.419 37.714 407.791 38.458C408.175 39.19 408.367 40.09 408.367 41.158ZM401.077 41.158C401.077 41.914 401.173 42.574 401.365 43.138C401.569 43.69 401.881 44.116 402.301 44.416C402.721 44.716 403.255 44.866 403.903 44.866C404.551 44.866 405.085 44.716 405.505 44.416C405.925 44.116 406.231 43.69 406.423 43.138C406.627 42.574 406.729 41.914 406.729 41.158C406.729 40.39 406.627 39.736 406.423 39.196C406.219 38.656 405.907 38.242 405.487 37.954C405.079 37.654 404.545 37.504 403.885 37.504C402.901 37.504 402.187 37.828 401.743 38.476C401.299 39.124 401.077 40.018 401.077 41.158ZM415.522 36.172C416.674 36.172 417.544 36.454 418.132 37.018C418.72 37.57 419.014 38.47 419.014 39.718V46H417.448V39.826C417.448 39.046 417.274 38.464 416.926 38.08C416.578 37.696 416.032 37.504 415.288 37.504C414.22 37.504 413.482 37.804 413.074 38.404C412.666 39.004 412.462 39.868 412.462 40.996V46H410.878V36.352H412.156L412.39 37.666H412.48C412.696 37.33 412.96 37.054 413.272 36.838C413.596 36.61 413.95 36.442 414.334 36.334C414.718 36.226 415.114 36.172 415.522 36.172ZM425.227 44.884C425.467 44.884 425.713 44.866 425.965 44.83C426.217 44.782 426.421 44.734 426.577 44.686V45.892C426.409 45.976 426.169 46.042 425.857 46.09C425.545 46.15 425.245 46.18 424.957 46.18C424.453 46.18 423.985 46.096 423.553 45.928C423.133 45.748 422.791 45.442 422.527 45.01C422.263 44.578 422.131 43.972 422.131 43.192V37.576H420.763V36.82L422.149 36.19L422.779 34.138H423.715V36.352H426.505V37.576H423.715V43.156C423.715 43.744 423.853 44.182 424.129 44.47C424.417 44.746 424.783 44.884 425.227 44.884ZM433.009 36.172C433.189 36.172 433.381 36.184 433.585 36.208C433.801 36.22 433.987 36.244 434.143 36.28L433.945 37.738C433.789 37.702 433.615 37.672 433.423 37.648C433.243 37.624 433.069 37.612 432.901 37.612C432.529 37.612 432.175 37.69 431.839 37.846C431.503 38.002 431.203 38.224 430.939 38.512C430.675 38.788 430.465 39.124 430.309 39.52C430.165 39.916 430.093 40.36 430.093 40.852V46H428.509V36.352H429.805L429.985 38.116H430.057C430.261 37.756 430.507 37.432 430.795 37.144C431.083 36.844 431.413 36.61 431.785 36.442C432.157 36.262 432.565 36.172 433.009 36.172ZM439.247 36.19C440.423 36.19 441.293 36.448 441.857 36.964C442.421 37.48 442.703 38.302 442.703 39.43V46H441.551L441.245 44.632H441.173C440.897 44.98 440.609 45.274 440.309 45.514C440.021 45.742 439.685 45.91 439.301 46.018C438.929 46.126 438.473 46.18 437.933 46.18C437.357 46.18 436.835 46.078 436.367 45.874C435.911 45.67 435.551 45.358 435.287 44.938C435.023 44.506 434.891 43.966 434.891 43.318C434.891 42.358 435.269 41.62 436.025 41.104C436.781 40.576 437.945 40.288 439.517 40.24L441.155 40.186V39.61C441.155 38.806 440.981 38.248 440.633 37.936C440.285 37.624 439.793 37.468 439.157 37.468C438.653 37.468 438.173 37.546 437.717 37.702C437.261 37.846 436.835 38.014 436.438 38.206L435.953 37.018C436.373 36.79 436.871 36.598 437.447 36.442C438.023 36.274 438.623 36.19 439.247 36.19ZM439.715 41.338C438.515 41.386 437.681 41.578 437.213 41.914C436.757 42.25 436.529 42.724 436.529 43.336C436.529 43.876 436.691 44.272 437.015 44.524C437.351 44.776 437.777 44.902 438.293 44.902C439.109 44.902 439.787 44.68 440.327 44.236C440.867 43.78 441.137 43.084 441.137 42.148V41.284L439.715 41.338ZM449.552 46.18C448.7 46.18 447.938 46.006 447.266 45.658C446.606 45.31 446.084 44.77 445.7 44.038C445.328 43.306 445.142 42.37 445.142 41.23C445.142 40.042 445.34 39.076 445.736 38.332C446.132 37.588 446.666 37.042 447.338 36.694C448.022 36.346 448.796 36.172 449.66 36.172C450.152 36.172 450.626 36.226 451.082 36.334C451.538 36.43 451.91 36.55 452.198 36.694L451.712 38.008C451.424 37.9 451.088 37.798 450.704 37.702C450.32 37.606 449.96 37.558 449.624 37.558C448.976 37.558 448.442 37.696 448.022 37.972C447.602 38.248 447.29 38.656 447.086 39.196C446.882 39.736 446.78 40.408 446.78 41.212C446.78 41.98 446.882 42.634 447.086 43.174C447.29 43.714 447.596 44.122 448.004 44.398C448.412 44.674 448.922 44.812 449.534 44.812C450.062 44.812 450.524 44.758 450.92 44.65C451.328 44.542 451.7 44.41 452.036 44.254V45.658C451.712 45.826 451.352 45.952 450.956 46.036C450.572 46.132 450.104 46.18 449.552 46.18ZM457.553 44.884C457.793 44.884 458.039 44.866 458.291 44.83C458.543 44.782 458.747 44.734 458.903 44.686V45.892C458.735 45.976 458.495 46.042 458.183 46.09C457.871 46.15 457.571 46.18 457.283 46.18C456.779 46.18 456.311 46.096 455.879 45.928C455.459 45.748 455.117 45.442 454.853 45.01C454.589 44.578 454.457 43.972 454.457 43.192V37.576H453.089V36.82L454.475 36.19L455.105 34.138H456.041V36.352H458.831V37.576H456.041V43.156C456.041 43.744 456.179 44.182 456.455 44.47C456.743 44.746 457.109 44.884 457.553 44.884ZM462.419 36.352V46H460.835V36.352H462.419ZM461.645 32.734C461.885 32.734 462.095 32.818 462.275 32.986C462.467 33.142 462.563 33.394 462.563 33.742C462.563 34.078 462.467 34.33 462.275 34.498C462.095 34.666 461.885 34.75 461.645 34.75C461.381 34.75 461.159 34.666 460.979 34.498C460.799 34.33 460.709 34.078 460.709 33.742C460.709 33.394 460.799 33.142 460.979 32.986C461.159 32.818 461.381 32.734 461.645 32.734ZM473.863 41.158C473.863 41.962 473.755 42.676 473.539 43.3C473.335 43.912 473.035 44.434 472.639 44.866C472.255 45.298 471.781 45.628 471.217 45.856C470.665 46.072 470.047 46.18 469.363 46.18C468.727 46.18 468.139 46.072 467.599 45.856C467.059 45.628 466.591 45.298 466.195 44.866C465.799 44.434 465.487 43.912 465.259 43.3C465.043 42.676 464.935 41.962 464.935 41.158C464.935 40.09 465.115 39.19 465.475 38.458C465.835 37.714 466.351 37.15 467.023 36.766C467.695 36.37 468.493 36.172 469.417 36.172C470.293 36.172 471.061 36.37 471.721 36.766C472.393 37.15 472.915 37.714 473.287 38.458C473.671 39.19 473.863 40.09 473.863 41.158ZM466.573 41.158C466.573 41.914 466.669 42.574 466.861 43.138C467.065 43.69 467.377 44.116 467.797 44.416C468.217 44.716 468.751 44.866 469.399 44.866C470.047 44.866 470.581 44.716 471.001 44.416C471.421 44.116 471.727 43.69 471.919 43.138C472.123 42.574 472.225 41.914 472.225 41.158C472.225 40.39 472.123 39.736 471.919 39.196C471.715 38.656 471.403 38.242 470.983 37.954C470.575 37.654 470.041 37.504 469.381 37.504C468.397 37.504 467.683 37.828 467.239 38.476C466.795 39.124 466.573 40.018 466.573 41.158ZM481.018 36.172C482.17 36.172 483.04 36.454 483.628 37.018C484.216 37.57 484.51 38.47 484.51 39.718V46H482.944V39.826C482.944 39.046 482.77 38.464 482.422 38.08C482.074 37.696 481.528 37.504 480.784 37.504C479.716 37.504 478.978 37.804 478.57 38.404C478.162 39.004 477.958 39.868 477.958 40.996V46H476.374V36.352H477.652L477.886 37.666H477.976C478.192 37.33 478.456 37.054 478.768 36.838C479.092 36.61 479.446 36.442 479.83 36.334C480.214 36.226 480.61 36.172 481.018 36.172Z" fill="black"/>
<path d="M30.114 31.352L30.114 41H28.53L28.53 31.352H30.114ZM29.34 27.734C29.58 27.734 29.79 27.818 29.97 27.986C30.162 28.142 30.258 28.394 30.258 28.742C30.258 29.078 30.162 29.33 29.97 29.498C29.79 29.666 29.58 29.75 29.34 29.75C29.076 29.75 28.854 29.666 28.674 29.498C28.494 29.33 28.404 29.078 28.404 28.742C28.404 28.394 28.494 28.142 28.674 27.986C28.854 27.818 29.076 27.734 29.34 27.734ZM37.8146 31.172C38.9666 31.172 39.8366 31.454 40.4246 32.018C41.0126 32.57 41.3066 33.47 41.3066 34.718V41H39.7406V34.826C39.7406 34.046 39.5666 33.464 39.2186 33.08C38.8706 32.696 38.3246 32.504 37.5806 32.504C36.5126 32.504 35.7746 32.804 35.3666 33.404C34.9586 34.004 34.7546 34.868 34.7546 35.996V41H33.1706V31.352H34.4486L34.6826 32.666H34.7726C34.9886 32.33 35.2526 32.054 35.5646 31.838C35.8886 31.61 36.2426 31.442 36.6266 31.334C37.0106 31.226 37.4066 31.172 37.8146 31.172ZM48.9416 31.172C50.0936 31.172 50.9636 31.454 51.5516 32.018C52.1396 32.57 52.4336 33.47 52.4336 34.718V41H50.8676V34.826C50.8676 34.046 50.6936 33.464 50.3456 33.08C49.9976 32.696 49.4516 32.504 48.7076 32.504C47.6396 32.504 46.9016 32.804 46.4936 33.404C46.0856 34.004 45.8816 34.868 45.8816 35.996V41H44.2976V31.352H45.5756L45.8096 32.666H45.8996C46.1156 32.33 46.3796 32.054 46.6916 31.838C47.0156 31.61 47.3696 31.442 47.7536 31.334C48.1376 31.226 48.5336 31.172 48.9416 31.172ZM59.1505 31.172C59.9785 31.172 60.6865 31.352 61.2745 31.712C61.8745 32.072 62.3305 32.582 62.6425 33.242C62.9665 33.89 63.1285 34.652 63.1285 35.528V36.482L56.5225 36.482C56.5465 37.574 56.8225 38.408 57.3505 38.984C57.8905 39.548 58.6405 39.83 59.6005 39.83C60.2125 39.83 60.7525 39.776 61.2205 39.668C61.7005 39.548 62.1925 39.38 62.6965 39.164V40.55C62.2045 40.766 61.7185 40.922 61.2385 41.018C60.7585 41.126 60.1885 41.18 59.5285 41.18C58.6165 41.18 57.8065 40.994 57.0985 40.622C56.4025 40.25 55.8565 39.698 55.4605 38.966C55.0765 38.222 54.8845 37.316 54.8845 36.248C54.8845 35.192 55.0585 34.286 55.4065 33.53C55.7665 32.774 56.2645 32.192 56.9005 31.784C57.5485 31.376 58.2985 31.172 59.1505 31.172ZM59.1325 32.468C58.3765 32.468 57.7765 32.714 57.3325 33.206C56.9005 33.686 56.6425 34.358 56.5585 35.222H61.4725C61.4725 34.67 61.3885 34.19 61.2205 33.782C61.0525 33.374 60.7945 33.056 60.4465 32.828C60.1105 32.588 59.6725 32.468 59.1325 32.468ZM70.0847 31.172C70.2647 31.172 70.4567 31.184 70.6607 31.208C70.8767 31.22 71.0627 31.244 71.2187 31.28L71.0207 32.738C70.8647 32.702 70.6907 32.672 70.4987 32.648C70.3187 32.624 70.1447 32.612 69.9767 32.612C69.6047 32.612 69.2507 32.69 68.9147 32.846C68.5787 33.002 68.2787 33.224 68.0147 33.512C67.7507 33.788 67.5407 34.124 67.3847 34.52C67.2407 34.916 67.1687 35.36 67.1687 35.852V41H65.5847V31.352H66.8807L67.0607 33.116H67.1327C67.3367 32.756 67.5827 32.432 67.8707 32.144C68.1587 31.844 68.4887 31.61 68.8607 31.442C69.2327 31.262 69.6407 31.172 70.0847 31.172ZM81.566 41.18C80.714 41.18 79.952 41.006 79.28 40.658C78.62 40.31 78.098 39.77 77.714 39.038C77.342 38.306 77.156 37.37 77.156 36.23C77.156 35.042 77.354 34.076 77.75 33.332C78.146 32.588 78.68 32.042 79.352 31.694C80.036 31.346 80.81 31.172 81.674 31.172C82.166 31.172 82.64 31.226 83.096 31.334C83.552 31.43 83.924 31.55 84.212 31.694L83.726 33.008C83.438 32.9 83.102 32.798 82.718 32.702C82.334 32.606 81.974 32.558 81.638 32.558C80.99 32.558 80.456 32.696 80.036 32.972C79.616 33.248 79.304 33.656 79.1 34.196C78.896 34.736 78.794 35.408 78.794 36.212C78.794 36.98 78.896 37.634 79.1 38.174C79.304 38.714 79.61 39.122 80.018 39.398C80.426 39.674 80.936 39.812 81.548 39.812C82.076 39.812 82.538 39.758 82.934 39.65C83.342 39.542 83.714 39.41 84.05 39.254V40.658C83.726 40.826 83.366 40.952 82.97 41.036C82.586 41.132 82.118 41.18 81.566 41.18ZM94.7325 36.158C94.7325 36.962 94.6245 37.676 94.4085 38.3C94.2045 38.912 93.9045 39.434 93.5085 39.866C93.1245 40.298 92.6505 40.628 92.0865 40.856C91.5345 41.072 90.9165 41.18 90.2325 41.18C89.5965 41.18 89.0085 41.072 88.4685 40.856C87.9285 40.628 87.4605 40.298 87.0645 39.866C86.6685 39.434 86.3565 38.912 86.1285 38.3C85.9125 37.676 85.8045 36.962 85.8045 36.158C85.8045 35.09 85.9845 34.19 86.3445 33.458C86.7045 32.714 87.2205 32.15 87.8925 31.766C88.5645 31.37 89.3625 31.172 90.2865 31.172C91.1625 31.172 91.9305 31.37 92.5905 31.766C93.2625 32.15 93.7845 32.714 94.1565 33.458C94.5405 34.19 94.7325 35.09 94.7325 36.158ZM87.4425 36.158C87.4425 36.914 87.5385 37.574 87.7305 38.138C87.9345 38.69 88.2465 39.116 88.6665 39.416C89.0865 39.716 89.6205 39.866 90.2685 39.866C90.9165 39.866 91.4505 39.716 91.8705 39.416C92.2905 39.116 92.5965 38.69 92.7885 38.138C92.9925 37.574 93.0945 36.914 93.0945 36.158C93.0945 35.39 92.9925 34.736 92.7885 34.196C92.5845 33.656 92.2725 33.242 91.8525 32.954C91.4445 32.654 90.9105 32.504 90.2505 32.504C89.2665 32.504 88.5525 32.828 88.1085 33.476C87.6645 34.124 87.4425 35.018 87.4425 36.158ZM101.887 31.172C103.039 31.172 103.909 31.454 104.497 32.018C105.085 32.57 105.379 33.47 105.379 34.718V41H103.813V34.826C103.813 34.046 103.639 33.464 103.291 33.08C102.943 32.696 102.397 32.504 101.653 32.504C100.585 32.504 99.8469 32.804 99.4389 33.404C99.0309 34.004 98.8269 34.868 98.8269 35.996V41H97.2429V31.352H98.5209L98.7549 32.666H98.8449C99.0609 32.33 99.3249 32.054 99.6369 31.838C99.9609 31.61 100.315 31.442 100.699 31.334C101.083 31.226 101.479 31.172 101.887 31.172ZM111.592 39.884C111.832 39.884 112.078 39.866 112.33 39.83C112.582 39.782 112.786 39.734 112.942 39.686V40.892C112.774 40.976 112.534 41.042 112.222 41.09C111.91 41.15 111.61 41.18 111.322 41.18C110.818 41.18 110.35 41.096 109.918 40.928C109.498 40.748 109.156 40.442 108.892 40.01C108.628 39.578 108.496 38.972 108.496 38.192V32.576H107.128V31.82L108.514 31.19L109.144 29.138H110.08V31.352H112.87V32.576H110.08V38.156C110.08 38.744 110.218 39.182 110.494 39.47C110.782 39.746 111.148 39.884 111.592 39.884ZM119.374 31.172C119.554 31.172 119.746 31.184 119.95 31.208C120.166 31.22 120.352 31.244 120.508 31.28L120.31 32.738C120.154 32.702 119.98 32.672 119.788 32.648C119.608 32.624 119.434 32.612 119.266 32.612C118.894 32.612 118.54 32.69 118.204 32.846C117.868 33.002 117.568 33.224 117.304 33.512C117.04 33.788 116.83 34.124 116.674 34.52C116.53 34.916 116.458 35.36 116.458 35.852V41H114.874V31.352H116.17L116.35 33.116H116.422C116.626 32.756 116.872 32.432 117.16 32.144C117.448 31.844 117.778 31.61 118.15 31.442C118.522 31.262 118.93 31.172 119.374 31.172ZM125.612 31.19C126.788 31.19 127.658 31.448 128.222 31.964C128.786 32.48 129.068 33.302 129.068 34.43V41H127.916L127.61 39.632H127.538C127.262 39.98 126.974 40.274 126.674 40.514C126.386 40.742 126.05 40.91 125.666 41.018C125.294 41.126 124.838 41.18 124.298 41.18C123.722 41.18 123.2 41.078 122.732 40.874C122.276 40.67 121.916 40.358 121.652 39.938C121.388 39.506 121.256 38.966 121.256 38.318C121.256 37.358 121.634 36.62 122.39 36.104C123.146 35.576 124.31 35.288 125.882 35.24L127.52 35.186V34.61C127.52 33.806 127.346 33.248 126.998 32.936C126.65 32.624 126.158 32.468 125.522 32.468C125.018 32.468 124.538 32.546 124.082 32.702C123.626 32.846 123.2 33.014 122.804 33.206L122.318 32.018C122.738 31.79 123.236 31.598 123.812 31.442C124.388 31.274 124.988 31.19 125.612 31.19ZM126.08 36.338C124.88 36.386 124.046 36.578 123.578 36.914C123.122 37.25 122.894 37.724 122.894 38.336C122.894 38.876 123.056 39.272 123.38 39.524C123.716 39.776 124.142 39.902 124.658 39.902C125.474 39.902 126.152 39.68 126.692 39.236C127.232 38.78 127.502 38.084 127.502 37.148V36.284L126.08 36.338ZM135.918 41.18C135.066 41.18 134.304 41.006 133.632 40.658C132.972 40.31 132.45 39.77 132.066 39.038C131.694 38.306 131.508 37.37 131.508 36.23C131.508 35.042 131.706 34.076 132.102 33.332C132.498 32.588 133.032 32.042 133.704 31.694C134.388 31.346 135.162 31.172 136.026 31.172C136.518 31.172 136.992 31.226 137.448 31.334C137.904 31.43 138.276 31.55 138.564 31.694L138.078 33.008C137.79 32.9 137.454 32.798 137.07 32.702C136.686 32.606 136.326 32.558 135.99 32.558C135.342 32.558 134.808 32.696 134.388 32.972C133.968 33.248 133.656 33.656 133.452 34.196C133.248 34.736 133.146 35.408 133.146 36.212C133.146 36.98 133.248 37.634 133.452 38.174C133.656 38.714 133.962 39.122 134.37 39.398C134.778 39.674 135.288 39.812 135.9 39.812C136.428 39.812 136.89 39.758 137.286 39.65C137.694 39.542 138.066 39.41 138.402 39.254V40.658C138.078 40.826 137.718 40.952 137.322 41.036C136.938 41.132 136.47 41.18 135.918 41.18ZM143.918 39.884C144.158 39.884 144.404 39.866 144.656 39.83C144.908 39.782 145.112 39.734 145.268 39.686V40.892C145.1 40.976 144.86 41.042 144.548 41.09C144.236 41.15 143.936 41.18 143.648 41.18C143.144 41.18 142.676 41.096 142.244 40.928C141.824 40.748 141.482 40.442 141.218 40.01C140.954 39.578 140.822 38.972 140.822 38.192V32.576H139.454V31.82L140.84 31.19L141.47 29.138H142.406V31.352L145.196 31.352V32.576L142.406 32.576V38.156C142.406 38.744 142.544 39.182 142.82 39.47C143.108 39.746 143.474 39.884 143.918 39.884ZM148.784 31.352V41L147.2 41V31.352H148.784ZM148.01 27.734C148.25 27.734 148.46 27.818 148.64 27.986C148.832 28.142 148.928 28.394 148.928 28.742C148.928 29.078 148.832 29.33 148.64 29.498C148.46 29.666 148.25 29.75 148.01 29.75C147.746 29.75 147.524 29.666 147.344 29.498C147.164 29.33 147.074 29.078 147.074 28.742C147.074 28.394 147.164 28.142 147.344 27.986C147.524 27.818 147.746 27.734 148.01 27.734ZM160.229 36.158C160.229 36.962 160.121 37.676 159.905 38.3C159.701 38.912 159.401 39.434 159.005 39.866C158.621 40.298 158.147 40.628 157.583 40.856C157.031 41.072 156.413 41.18 155.729 41.18C155.093 41.18 154.505 41.072 153.965 40.856C153.425 40.628 152.957 40.298 152.561 39.866C152.165 39.434 151.853 38.912 151.625 38.3C151.409 37.676 151.301 36.962 151.301 36.158C151.301 35.09 151.481 34.19 151.841 33.458C152.201 32.714 152.717 32.15 153.389 31.766C154.061 31.37 154.859 31.172 155.783 31.172C156.659 31.172 157.427 31.37 158.087 31.766C158.759 32.15 159.281 32.714 159.653 33.458C160.037 34.19 160.229 35.09 160.229 36.158ZM152.939 36.158C152.939 36.914 153.035 37.574 153.227 38.138C153.431 38.69 153.743 39.116 154.163 39.416C154.583 39.716 155.117 39.866 155.765 39.866C156.413 39.866 156.947 39.716 157.367 39.416C157.787 39.116 158.093 38.69 158.285 38.138C158.489 37.574 158.591 36.914 158.591 36.158C158.591 35.39 158.489 34.736 158.285 34.196C158.081 33.656 157.769 33.242 157.349 32.954C156.941 32.654 156.407 32.504 155.747 32.504C154.763 32.504 154.049 32.828 153.605 33.476C153.161 34.124 152.939 35.018 152.939 36.158ZM167.383 31.172C168.535 31.172 169.405 31.454 169.993 32.018C170.581 32.57 170.875 33.47 170.875 34.718V41L169.309 41V34.826C169.309 34.046 169.135 33.464 168.787 33.08C168.439 32.696 167.893 32.504 167.149 32.504C166.081 32.504 165.343 32.804 164.935 33.404C164.527 34.004 164.323 34.868 164.323 35.996V41H162.739V31.352H164.017L164.251 32.666H164.341C164.557 32.33 164.821 32.054 165.133 31.838C165.457 31.61 165.811 31.442 166.195 31.334C166.579 31.226 166.975 31.172 167.383 31.172Z" fill="black"/>
<path d="M263.216 227.906L263.215 232.917L263.216 232.918L263.716 232.918L263.715 234.558L265.136 233.738L265.386 234.171L269.726 231.665L269.476 231.232L273.816 228.726L274.066 229.159L278.407 226.653L278.157 226.22L282.497 223.714L282.747 224.147L287.087 221.642L286.837 221.209L291.178 218.703L291.428 219.136L295.768 216.63L295.518 216.197L299.858 213.691L300.108 214.124L304.448 211.618L304.198 211.185L308.539 208.679L308.789 209.112L313.129 206.606L312.879 206.173L317.219 203.668L317.469 204.101L321.809 201.595L321.559 201.162L325.9 198.656L326.15 199.089L330.49 196.583L330.24 196.15L334.581 193.644L334.831 194.077L339.171 191.571L338.921 191.138L343.262 188.632L343.512 189.065L347.852 186.559L347.602 186.126L351.942 183.62L352.192 184.053L356.533 181.547L356.283 181.114L360.623 178.609L360.873 179.042L365.213 176.536L364.963 176.103L369.303 173.597L369.553 174.03L373.894 171.524L373.644 171.091L377.984 168.585L378.234 169.018L382.574 166.512L382.324 166.079L386.664 163.573L386.914 164.006L391.255 161.501L391.005 161.068L395.345 158.562L395.595 158.995L399.935 156.489L399.685 156.056L404.026 153.55L404.276 153.983L408.616 151.477L408.366 151.044L412.706 148.538L412.956 148.971L417.296 146.465L417.046 146.032L421.387 143.526L421.637 143.959L425.977 141.454L425.727 141.021L427.148 140.2L425.727 139.381L425.977 138.948L425.977 138.947L421.636 136.442L421.387 136.874L417.047 134.369L417.296 133.936L417.297 133.935L412.956 131.43L412.706 131.863L408.366 129.357L408.616 128.924L408.616 128.923L404.275 126.418L404.026 126.851L399.686 124.345L399.935 123.913L399.936 123.911L395.595 121.406L395.345 121.839L391.005 119.334L391.255 118.901L391.255 118.899L386.915 116.394L386.915 116.395L386.665 116.828L382.324 114.322L382.574 113.889L378.234 111.382L378.234 111.383L377.984 111.816L373.644 109.31L373.893 108.877L369.554 106.37L369.553 106.372L369.304 106.804L364.963 104.298L365.213 103.865L360.873 101.358L360.873 101.36L360.623 101.793L356.283 99.2863L356.532 98.8534L352.192 96.3466L352.192 96.348L351.942 96.7808L347.602 94.2744L347.852 93.8416L343.512 91.3348L343.512 91.3361L343.262 91.769L338.921 89.2626L339.171 88.8298L334.831 86.323L334.831 86.3243L334.581 86.7571L330.241 84.2508L330.49 83.818L326.151 81.3112L326.15 81.3125L325.9 81.7458L321.559 79.2395L321.81 78.8062L317.47 76.2994L317.47 76.3007L317.219 76.734L312.879 74.2277L313.129 73.7944L308.789 71.2875L308.789 71.2889L308.539 71.7222L304.199 69.2167L304.449 68.7834L304.449 68.7821L300.108 66.2771L299.858 66.7104L295.518 64.2049L295.768 63.7716L295.769 63.7702L291.428 61.2652L291.177 61.6985L286.837 59.1931L287.088 58.7598L287.088 58.7584L282.747 56.2534L282.497 56.6867L278.157 54.1812L278.407 53.7479L278.408 53.7466L274.067 51.2416L273.816 51.6749L269.476 49.1694L269.727 48.7361L269.727 48.7348L265.386 46.2298L265.136 46.6631L263.716 45.8431L263.716 47.4829L263.217 47.4822L263.216 52.4941L263.216 52.4949L263.716 52.4951L263.716 57.5065L263.217 57.5058L263.216 62.5176L263.216 62.5184L263.716 62.5186L263.716 67.53L263.216 67.5298L263.216 72.542L263.716 72.5422L263.716 77.5535L263.216 77.5533L263.216 82.5655L263.716 82.5657L263.716 87.5771L263.216 87.5769L263.216 92.5891L263.216 92.5895L263.716 92.5893L263.716 97.6006L263.216 97.6004L263.216 102.612L263.716 102.612L263.716 107.624L263.216 107.624L263.216 112.635L263.716 112.635L263.716 117.648L263.216 117.647L263.216 122.659L263.716 122.659L263.716 127.671L263.216 127.671L263.216 132.682L263.716 132.683L263.716 137.695L263.216 137.695L263.216 142.706L263.716 142.706L263.716 147.718L263.216 147.718L263.216 152.729L263.716 152.73L263.716 157.742L263.217 157.742L263.216 162.753L263.215 162.753L263.716 162.753L263.716 167.765L263.217 167.765L263.216 172.776L263.216 172.777L263.716 172.777L263.716 177.789L263.217 177.789L263.216 182.8L263.216 182.801L263.715 182.801L263.716 187.813L263.216 187.813L263.215 187.812L263.216 192.824L263.216 192.824L263.715 192.824L263.716 197.836L263.216 197.836L263.215 197.835L263.217 202.847L263.216 202.848L263.715 202.848L263.715 207.859L263.216 207.858L263.217 212.871L263.216 212.871L263.715 212.871L263.715 217.883L263.216 217.882L263.215 222.894L263.216 222.895L263.715 222.895L263.715 227.906L263.216 227.906Z" stroke="#808080" stroke-dasharray="5 5"/>
<path d="M274.957 58.4365L271.755 54.7891V54.7881L271.379 55.1182L268.177 51.4707L268.553 51.1416H268.554L265.352 47.4941H265.351L264.976 47.8242L264.25 46.998V48.166H263.75V53.1562H264.25V58.1475H263.75V63.1387H264.25V68.1299H263.75V73.1211H264.25V78.1123H263.75V83.1025H264.25V88.0938H263.75V93.085H264.25V98.0762H263.75V103.067H264.25V108.059H263.75V113.049H264.25V118.04H263.75V123.031H264.25V128.022H263.75V133.014H264.25V138.005H263.75V142.995H264.25V147.986H263.75V152.978H264.25V157.969H263.75V162.96H264.25V167.951H263.75V172.941H264.25V177.933H263.75V182.924H264.25V187.915H263.75V192.906H264.25V197.897H263.75V202.888H264.25V207.879H263.75V212.87H264.25V217.861H263.75V222.853H264.25V227.843H263.75V232.834H264.25V234.003L264.976 233.177L265.351 233.506L265.352 233.507L268.554 229.859L268.553 229.858L268.177 229.529L271.379 225.882L271.755 226.212L274.957 222.564L274.581 222.234L277.783 218.587L278.158 218.917L278.159 218.918L281.361 215.271L281.36 215.27L280.984 214.939L284.187 211.292L284.562 211.622L284.563 211.623L287.766 207.976L287.765 207.975L287.389 207.646L290.591 203.998L290.967 204.328L294.169 200.682L294.168 200.681L293.793 200.351L296.994 196.703L297.37 197.033L297.371 197.034L300.573 193.387L300.572 193.386L300.196 193.056L303.398 189.408L303.774 189.738L306.977 186.092L306.976 186.091L306.601 185.762L309.802 182.114L310.178 182.444L313.38 178.797L313.004 178.467L316.206 174.819L316.582 175.149L319.784 171.503L319.783 171.502L319.408 171.172L322.609 167.524L322.985 167.854L322.986 167.855L326.188 164.208L326.188 164.207L325.812 163.878L329.014 160.23L329.39 160.561L332.592 156.913L332.216 156.583L335.418 152.936L335.793 153.266L335.794 153.267L338.996 149.619L338.995 149.618L338.619 149.288L341.821 145.641L342.197 145.971L342.198 145.972L345.399 142.323L345.023 141.994L346.335 140.5L345.023 139.006L345.399 138.678L342.198 135.029H342.197L341.821 135.359L338.619 131.712L338.995 131.382H338.996L335.794 127.734H335.793L335.418 128.064L332.216 124.417L332.592 124.088L329.39 120.44L329.014 120.77L325.812 117.122L326.188 116.793H326.188L322.986 113.146H322.985L322.609 113.476L319.408 109.828L319.783 109.498H319.784L316.582 105.852V105.851L316.206 106.181L313.004 102.533L313.38 102.204L310.178 98.5566V98.5557L309.802 98.8857L306.601 95.2383L306.976 94.9092H306.977L303.774 91.2627V91.2617L303.398 91.5918L300.196 87.9443L300.572 87.6143H300.573L297.371 83.9668H297.37L296.994 84.2969L293.793 80.6494L294.168 80.3193H294.169L290.967 76.6729L290.591 77.002L287.389 73.3545L287.765 73.0254H287.766L284.563 69.3779H284.562L284.187 69.708L280.984 66.0605L281.36 65.7305H281.361L278.159 62.083H278.158L277.783 62.4131L274.581 58.7656L274.957 58.4365Z" stroke="#808080" stroke-dasharray="5 5"/>
<path d="M254.043 58.4365L257.245 54.7891V54.7881L257.621 55.1182L260.823 51.4707L260.447 51.1416H260.446L263.648 47.4941H263.649L264.024 47.8242L264.75 46.998V48.166H265.25V53.1562H264.75V58.1475H265.25V63.1387H264.75V68.1299H265.25V73.1211H264.75V78.1123H265.25V83.1025H264.75V88.0938H265.25V93.085H264.75V98.0762H265.25V103.067H264.75V108.059H265.25V113.049H264.75V118.04H265.25V123.031H264.75V128.022H265.25V133.014H264.75V138.005H265.25V142.995H264.75V147.986H265.25V152.978H264.75V157.969H265.25V162.96H264.75V167.951H265.25V172.941H264.75V177.933H265.25V182.924H264.75V187.915H265.25V192.906H264.75V197.897H265.25V202.888H264.75V207.879H265.25V212.87H264.75V217.861H265.25V222.853H264.75V227.843H265.25V232.834H264.75V234.003L264.024 233.177L263.649 233.506L263.648 233.507L260.446 229.859L260.447 229.858L260.823 229.529L257.621 225.882L257.245 226.212L254.043 222.564L254.419 222.234L251.217 218.587L250.842 218.917L250.841 218.918L247.639 215.271L247.64 215.27L248.016 214.939L244.813 211.292L244.438 211.622L244.437 211.623L241.234 207.976L241.235 207.975L241.611 207.646L238.409 203.998L238.033 204.328L234.831 200.682L234.832 200.681L235.207 200.351L232.006 196.703L231.63 197.033L231.629 197.034L228.427 193.387L228.428 193.386L228.804 193.056L225.602 189.408L225.226 189.738L222.023 186.092L222.024 186.091L222.399 185.762L219.198 182.114L218.822 182.444L215.62 178.797L215.996 178.467L212.794 174.819L212.418 175.149L209.216 171.503L209.217 171.502L209.592 171.172L206.391 167.524L206.015 167.854L206.014 167.855L202.812 164.208L202.812 164.207L203.188 163.878L199.986 160.23L199.61 160.561L196.408 156.913L196.784 156.583L193.582 152.936L193.207 153.266L193.206 153.267L190.004 149.619L190.005 149.618L190.381 149.288L187.179 145.641L186.803 145.971L186.802 145.972L183.601 142.323L183.977 141.994L182.665 140.5L183.977 139.006L183.601 138.678L186.802 135.029H186.803L187.179 135.359L190.381 131.712L190.005 131.382H190.004L193.206 127.734H193.207L193.582 128.064L196.784 124.417L196.408 124.088L199.61 120.44L199.986 120.77L203.188 117.122L202.812 116.793H202.812L206.014 113.146H206.015L206.391 113.476L209.592 109.828L209.217 109.498H209.216L212.418 105.852V105.851L212.794 106.181L215.996 102.533L215.62 102.204L218.822 98.5566V98.5557L219.198 98.8857L222.399 95.2383L222.024 94.9092H222.023L225.226 91.2627V91.2617L225.602 91.5918L228.804 87.9443L228.428 87.6143H228.427L231.629 83.9668H231.63L232.006 84.2969L235.207 80.6494L234.832 80.3193H234.831L238.033 76.6729L238.409 77.002L241.611 73.3545L241.235 73.0254H241.234L244.437 69.3779H244.437L244.813 69.708L248.016 66.0605L247.64 65.7305H247.639L250.841 62.083H250.842L251.217 62.4131L254.419 58.7656L254.043 58.4365Z" stroke="#808080" stroke-dasharray="5 5"/>
<path d="M299.656 223.476L294.87 225.057H294.869L294.712 224.582L289.925 226.162L290.081 226.637H290.082L285.294 228.217V228.218L285.137 227.743L280.35 229.323L280.506 229.798H280.507L275.719 231.378V231.379L275.562 230.903L270.774 232.484L270.932 232.959H270.933L266.144 234.539V234.54L265.987 234.064L264.25 234.639V232.834H263.75V227.844H264.25V222.853H263.75V217.861H264.25V212.87H263.75V207.879H264.25V202.888H263.75V197.897H264.25V192.906H263.75V187.915H264.25V182.924H263.75V177.933H264.25V172.941H263.75V167.951H264.25V162.96H263.75V157.969H264.25V152.978H263.75V147.986H264.25V142.995H263.75V138.005H264.25V133.014H263.75V128.022H264.25V123.031H263.75V118.04H264.25V113.049H263.75V108.059H264.25V103.067H263.75V98.0762H264.25V93.085H263.75V88.0937H264.25V83.1035H263.75V78.1123H264.25V73.1211H263.75V68.1299H264.25V63.1387H263.75V58.1475H264.25V53.1572H263.75V48.166H264.25V46.3613L265.987 46.9355L266.144 46.4609L266.145 46.46L270.933 48.04L270.932 48.041L270.774 48.5156L275.562 50.0967L275.719 49.6211L280.507 51.2012L280.506 51.2021L280.35 51.6768L285.137 53.2568L285.294 52.7822L290.082 54.3623L290.081 54.3633L289.925 54.8379L294.712 56.418L294.869 55.9434L294.87 55.9424L299.657 57.5234L299.656 57.5244L299.499 57.999L304.287 59.5791L304.443 59.1045L304.444 59.1035L309.231 60.6846L309.074 61.1602L313.862 62.7402L314.019 62.2656L314.02 62.2646L318.807 63.8457L318.649 64.3203L323.437 65.9014L323.594 65.4268L323.595 65.4258L328.382 67.0059L328.381 67.0068L328.225 67.4814L333.012 69.0625L333.169 68.5869L337.957 70.167L337.956 70.168L337.8 70.6426L342.587 72.2236L342.744 71.748L347.532 73.3281L347.531 73.3291L347.374 73.8037L352.162 75.3838L352.318 74.9092L352.319 74.9082L357.107 76.4893L357.106 76.4902L356.949 76.9648L361.737 78.5449L361.894 78.0703L361.895 78.0693L366.683 79.6504L366.682 79.6514L366.524 80.126L371.312 81.7061L371.469 81.2314L371.47 81.2305L376.256 82.8115L376.1 83.2871L380.887 84.8672L381.044 84.3926L381.045 84.3916L385.832 85.9717L385.831 85.9727L385.675 86.4473L390.462 88.0283L390.619 87.5537L390.62 87.5527L395.407 89.1328L395.406 89.1338L395.249 89.6084L400.037 91.1894L400.193 90.7148L400.194 90.7139L404.982 92.2939L404.981 92.2949L404.824 92.7695L409.612 94.3506L409.769 93.875L414.558 95.4551L414.557 95.4561L414.399 95.9307L419.187 97.5107L419.344 97.0361L424.132 98.6162L424.131 98.6172L423.975 99.0918L428.762 100.672L428.919 100.197L433.707 101.777L433.706 101.778L433.55 102.253L438.337 103.833L438.494 103.358L438.495 103.357L443.281 104.938L443.124 105.414L447.912 106.994L448.068 106.52L448.069 106.519L452.856 108.1L452.699 108.574L457.487 110.155L457.644 109.681L457.645 109.68L462.432 111.261L462.274 111.735L467.062 113.316L467.219 112.842L467.22 112.841L472.007 114.421L472.006 114.422L471.85 114.896L476.637 116.478L476.794 116.002L481.582 117.582L481.581 117.583L481.425 118.058L486.212 119.638L486.369 119.163L491.157 120.743L491.156 120.744L490.999 121.219L495.787 122.799L495.943 122.324L495.944 122.323L500.732 123.904L500.731 123.905L500.574 124.38L505.362 125.96L505.519 125.485L505.52 125.484L510.307 127.065L510.149 127.541L514.937 129.121L515.094 128.646L515.095 128.646L519.881 130.227L519.725 130.701L524.512 132.282L524.669 131.808L524.67 131.807L529.457 133.387L529.456 133.388L529.3 133.862L534.087 135.443L534.244 134.969L534.245 134.968L539.032 136.548L539.031 136.549L538.874 137.023L543.662 138.604L543.818 138.129L548.607 139.709L548.606 139.71L548.449 140.185L549.405 140.5L548.449 140.815L548.606 141.29H548.607L543.818 142.87V142.871L543.662 142.396L538.874 143.977L539.031 144.451H539.032L534.244 146.031L534.087 145.557L529.3 147.138L529.456 147.612H529.457L524.67 149.192H524.669L524.512 148.718L519.725 150.299L519.881 150.772L515.095 152.354H515.094L514.938 151.879L510.149 153.459L510.307 153.934L505.52 155.515H505.519L505.362 155.04L500.574 156.62L500.731 157.095H500.732L495.944 158.676H495.943L495.787 158.201L491 159.781L491.156 160.256H491.157L486.369 161.836V161.837L486.212 161.362L481.425 162.942L481.581 163.417H481.582L476.794 164.997V164.998L476.637 164.522L471.85 166.104L472.006 166.578H472.007L467.22 168.158H467.219L467.063 167.684L462.274 169.265L462.432 169.738L457.645 171.319H457.644L457.487 170.845L452.699 172.426L452.856 172.899L448.069 174.48H448.068L447.912 174.006L443.125 175.586L443.281 176.061L438.495 177.642H438.494L438.337 177.167L433.55 178.747L433.706 179.222H433.707L428.919 180.802V180.803L428.762 180.328L423.975 181.908L424.131 182.383H424.132L419.344 183.963V183.964L419.188 183.489L414.399 185.069L414.557 185.544H414.558L409.769 187.124V187.125L409.612 186.649L404.824 188.23L404.981 188.705H404.982L400.193 190.285V190.286L400.037 189.811L395.249 191.392L395.406 191.866H395.407L390.62 193.446H390.619L390.462 192.972L385.675 194.553L385.831 195.027H385.832L381.045 196.607H381.044L380.887 196.133L376.1 197.713L376.256 198.187L371.47 199.769H371.469L371.312 199.294L366.524 200.874L366.682 201.349L361.895 202.93H361.894L361.737 202.455L356.949 204.035L357.106 204.51H357.107L352.319 206.091H352.318L352.162 205.616L347.374 207.196L347.531 207.671H347.532L342.744 209.251V209.252L342.587 208.776L337.8 210.357L337.956 210.832H337.957L333.169 212.412V212.413L333.012 211.937L328.225 213.519L328.381 213.993H328.382L323.595 215.573H323.594L323.437 215.099L318.649 216.68L318.807 217.153L314.02 218.734H314.019L313.862 218.26L309.074 219.84L309.231 220.314L304.444 221.895H304.443L304.287 221.421L299.499 223.001L299.656 223.476Z" stroke="#808080" stroke-dasharray="5 5"/>
<circle cx="103.5" cy="140.5" r="5.5" fill="black"/>
<circle cx="264.5" cy="233.5" r="5.5" fill="black"/>
<circle cx="264.5" cy="46.5" r="5.5" fill="black"/>
<circle cx="184" cy="140" r="4" fill="#7A7A7A"/>
<circle cx="346" cy="140" r="4" fill="#7A7A7A"/>
<circle cx="428" cy="140" r="4" fill="#7A7A7A"/>
<circle cx="549" cy="140" r="4" fill="#7A7A7A"/>
<path d="M264.35 233.692L102.419 140.2L264.351 46.7083L264.35 233.692Z" stroke="black" stroke-width="2"/>
<circle cx="265" cy="140" r="4" fill="#7A7A7A"/>
<circle cx="184" cy="187" r="4" fill="#7A7A7A"/>
<path d="M173.238 136.439C173.481 136.308 173.571 136.004 173.439 135.762L171.293 131.806C171.162 131.564 170.858 131.474 170.615 131.605C170.373 131.737 170.283 132.041 170.414 132.283L172.322 135.799L168.806 137.707C168.564 137.838 168.474 138.142 168.605 138.385C168.737 138.627 169.041 138.717 169.283 138.586L173.238 136.439ZM173 136L173.142 135.521C152.501 129.401 135.752 114.044 123.19 97.2775C110.632 80.5154 102.299 62.3959 98.4747 50.8429L98 51L97.5253 51.1571C101.38 62.802 109.761 81.02 122.39 97.8771C135.016 114.73 151.928 130.274 172.858 136.479L173 136Z" fill="black"/>
<path d="M352.551 136.781C352.43 137.029 352.532 137.328 352.781 137.449L356.824 139.424C357.073 139.545 357.372 139.442 357.493 139.194C357.614 138.945 357.511 138.646 357.263 138.525L353.669 136.77L355.424 133.176C355.545 132.927 355.442 132.628 355.194 132.507C354.945 132.386 354.646 132.489 354.525 132.737L352.551 136.781ZM353 137L353.163 137.473C369.352 131.905 383.103 117.48 393.701 101.796C404.308 86.0995 411.809 69.0647 415.474 58.1593L415 58L414.526 57.8407C410.886 68.6735 403.422 85.6247 392.872 101.236C382.314 116.861 368.717 131.066 352.837 136.527L353 137Z" fill="black"/>
<path d="M553.09 143.508C552.818 143.459 552.558 143.639 552.508 143.91L551.702 148.338C551.653 148.609 551.833 148.87 552.104 148.919C552.376 148.969 552.636 148.788 552.686 148.517L553.402 144.581L557.338 145.298C557.609 145.347 557.87 145.167 557.919 144.896C557.969 144.624 557.788 144.364 557.517 144.314L553.09 143.508ZM553 144L552.589 144.285C558.843 153.324 560.153 163.271 559.238 172.057C558.322 180.849 555.179 188.449 552.573 192.74L553 193L553.427 193.26C556.104 188.852 559.3 181.112 560.232 172.16C561.166 163.201 559.834 152.998 553.411 143.715L553 144Z" fill="black"/>
<path d="M434.09 143.508C433.818 143.459 433.558 143.639 433.508 143.91L432.702 148.338C432.653 148.609 432.833 148.87 433.104 148.919C433.376 148.969 433.636 148.788 433.686 148.517L434.402 144.581L438.338 145.298C438.609 145.347 438.87 145.167 438.919 144.896C438.969 144.624 438.788 144.364 438.517 144.314L434.09 143.508ZM434 144L433.589 144.285C439.843 153.324 441.153 163.271 440.238 172.057C439.322 180.849 436.179 188.449 433.573 192.74L434 193L434.427 193.26C437.104 188.852 440.3 181.112 441.232 172.16C442.166 163.201 440.834 152.998 434.411 143.715L434 144Z" fill="black"/>
<path d="M181.066 194.769C180.939 194.524 180.637 194.429 180.392 194.557L176.402 196.637C176.157 196.765 176.062 197.067 176.189 197.312C176.317 197.556 176.619 197.651 176.864 197.524L180.411 195.675L182.26 199.221C182.388 199.466 182.69 199.561 182.934 199.434C183.179 199.306 183.274 199.004 183.147 198.759L181.066 194.769ZM180.623 195L180.146 194.85C177.969 201.769 177.951 207.686 180.095 212.76C182.238 217.831 186.509 221.983 192.758 225.438L193 225L193.242 224.562C187.114 221.175 183.044 217.169 181.016 212.371C178.99 207.577 178.971 201.915 181.1 195.15L180.623 195Z" fill="black"/>
<path d="M259.435 143.247C259.571 143.007 259.487 142.702 259.247 142.565L255.337 140.339C255.097 140.203 254.791 140.287 254.655 140.527C254.518 140.767 254.602 141.072 254.842 141.208L258.318 143.187L256.339 146.663C256.203 146.903 256.287 147.209 256.527 147.345C256.767 147.482 257.072 147.398 257.208 147.158L259.435 143.247ZM259 143L258.868 142.518C242.203 147.093 227.927 161.729 217.43 178.14C206.927 194.559 200.138 212.865 198.505 224.933L199 225L199.495 225.067C201.105 213.174 207.829 195.005 218.273 178.679C228.722 162.342 242.825 147.959 259.132 143.482L259 143Z" fill="black"/>
<g clip-path="url(#clip1_21_37)">
<path d="M245.64 250.387C245.658 250.33 245.677 250.255 245.696 250.16C245.714 250.066 245.76 249.858 245.834 249.538C245.908 249.217 246.001 248.925 246.112 248.66C246.223 248.396 246.362 248.085 246.528 247.726C246.695 247.368 246.88 247.085 247.084 246.877C247.287 246.67 247.528 246.462 247.806 246.255C248.083 246.047 248.389 245.962 248.722 246C250.11 246 250.999 246.604 251.387 247.811L251.665 247.557C252.813 246.519 253.905 246 254.941 246C256.144 246 257.088 246.443 257.773 247.33C258.458 248.217 258.801 249.292 258.801 250.557C258.801 252.594 258.097 254.472 256.691 256.189C255.284 257.906 253.692 258.774 251.915 258.792C251.508 258.792 251.147 258.736 250.832 258.623C250.628 258.528 250.416 258.387 250.193 258.198C249.971 258.009 249.796 257.849 249.666 257.717L249.472 257.491C249.453 257.509 249.249 258.33 248.861 259.953C248.472 261.575 248.278 262.396 248.278 262.415C248.278 262.528 248.352 262.594 248.5 262.613C248.648 262.632 248.99 262.66 249.527 262.698H250.221C250.332 262.83 250.388 262.915 250.388 262.953C250.388 262.991 250.36 263.16 250.305 263.462C250.249 263.689 250.193 263.83 250.138 263.887C250.082 263.943 249.962 263.981 249.777 264C249.74 264 249.638 264 249.472 264C249.305 264 248.99 263.991 248.528 263.972C248.065 263.953 247.491 263.943 246.806 263.943C245.51 263.943 244.687 263.962 244.335 264H244.113C243.983 263.868 243.919 263.764 243.919 263.689C243.956 263.179 244.076 262.849 244.279 262.698H244.835C245.464 262.679 245.825 262.566 245.918 262.358C245.973 262.245 246.538 259.991 247.611 255.594C248.685 251.198 249.249 248.868 249.305 248.604C249.324 248.509 249.333 248.377 249.333 248.208C249.333 247.434 249.101 247.047 248.639 247.047C248.231 247.047 247.889 247.311 247.611 247.84C247.334 248.368 247.121 248.943 246.973 249.566C246.825 250.189 246.714 250.528 246.64 250.585C246.603 250.623 246.454 250.642 246.195 250.642H245.807C245.696 250.528 245.64 250.443 245.64 250.387ZM249.944 255.623C250.351 257.057 251.036 257.774 251.998 257.774C252.554 257.774 253.09 257.557 253.609 257.123C254.127 256.689 254.553 256.142 254.886 255.481C255.219 254.84 255.552 253.821 255.885 252.425C256.219 251.028 256.394 249.991 256.413 249.311V249.142C256.413 247.745 255.848 247.047 254.719 247.047C254.516 247.047 254.312 247.075 254.108 247.132C253.905 247.189 253.701 247.274 253.498 247.387C253.294 247.5 253.109 247.623 252.942 247.755C252.776 247.887 252.618 248.028 252.47 248.179C252.322 248.33 252.183 248.472 252.054 248.604C251.924 248.736 251.822 248.868 251.748 249C251.674 249.132 251.6 249.226 251.526 249.283L251.443 249.396C251.443 249.415 251.415 249.547 251.36 249.792C251.304 250.038 251.202 250.453 251.054 251.038C250.906 251.623 250.777 252.113 250.665 252.509C250.184 254.509 249.944 255.547 249.944 255.623Z" fill="black"/>
<path d="M260.688 261.834H260.963C261.474 261.834 261.781 261.741 261.886 261.554V261.394C261.886 261.274 261.886 261.121 261.886 260.934C261.886 260.747 261.886 260.54 261.886 260.314C261.886 260.087 261.892 259.827 261.905 259.533C261.918 259.24 261.918 258.96 261.905 258.693C261.905 258.279 261.905 257.839 261.905 257.372C261.905 256.905 261.899 256.512 261.886 256.192V255.731C261.847 255.478 261.755 255.311 261.611 255.231C261.467 255.151 261.173 255.091 260.728 255.051H260.374V254.591C260.374 254.284 260.387 254.131 260.414 254.131L260.61 254.111C260.741 254.097 260.924 254.084 261.159 254.071C261.395 254.057 261.637 254.044 261.886 254.031C262.108 254.017 262.344 254.004 262.592 253.991C262.841 253.977 263.031 253.957 263.162 253.931C263.293 253.904 263.365 253.897 263.378 253.911H263.437V254.711C263.437 255.218 263.443 255.471 263.456 255.471C263.469 255.471 263.502 255.438 263.554 255.371C263.607 255.305 263.685 255.204 263.79 255.071C263.895 254.938 264.019 254.818 264.163 254.711C264.307 254.604 264.497 254.477 264.732 254.331C264.968 254.184 265.216 254.077 265.478 254.011C265.74 253.944 266.074 253.911 266.479 253.911C266.675 253.911 266.859 253.924 267.029 253.951C267.199 253.977 267.349 254.017 267.48 254.071C267.611 254.124 267.736 254.177 267.853 254.231C267.971 254.284 268.069 254.344 268.148 254.411C268.226 254.477 268.298 254.551 268.364 254.631C268.429 254.711 268.488 254.784 268.54 254.851C268.593 254.918 268.638 254.991 268.678 255.071C268.717 255.151 268.743 255.218 268.756 255.271C268.769 255.325 268.789 255.378 268.815 255.431L268.854 255.531L268.913 255.451C268.953 255.398 268.992 255.345 269.031 255.291C269.07 255.238 269.129 255.164 269.208 255.071C269.286 254.978 269.371 254.891 269.463 254.811C269.555 254.731 269.653 254.644 269.757 254.551C269.862 254.457 269.993 254.377 270.15 254.311C270.307 254.244 270.458 254.177 270.601 254.111C270.745 254.044 270.916 253.997 271.112 253.971C271.308 253.944 271.511 253.924 271.72 253.911C273.369 253.911 274.266 254.664 274.41 256.172C274.423 256.265 274.429 257.192 274.429 258.953V260.674C274.429 261.181 274.442 261.481 274.469 261.574C274.495 261.668 274.567 261.734 274.685 261.774C274.959 261.814 275.28 261.834 275.646 261.834H275.96V262.755H275.803L275.352 262.735C275.038 262.721 274.704 262.715 274.351 262.715C273.997 262.715 273.749 262.708 273.605 262.695C272.257 262.695 271.524 262.715 271.406 262.755H271.249V261.834H271.563C272.362 261.834 272.761 261.728 272.761 261.514C272.774 261.487 272.78 260.567 272.78 258.753C272.767 256.952 272.754 255.998 272.741 255.891C272.663 255.518 272.532 255.238 272.349 255.051C272.165 254.864 272.008 254.751 271.877 254.711C271.747 254.671 271.576 254.658 271.367 254.671C270.778 254.671 270.261 254.898 269.816 255.351C269.463 255.711 269.24 256.078 269.149 256.452C269.057 256.825 269.005 257.379 268.992 258.113V259.393V260.594C268.992 260.994 268.998 261.261 269.011 261.394C269.025 261.527 269.044 261.614 269.07 261.654C269.097 261.694 269.155 261.734 269.247 261.774C269.522 261.814 269.842 261.834 270.209 261.834H270.523V262.755H270.366L269.895 262.735C269.594 262.721 269.267 262.715 268.913 262.715C268.56 262.715 268.311 262.708 268.167 262.695C266.819 262.695 266.087 262.715 265.969 262.755H265.812V261.834H266.126C266.924 261.834 267.323 261.728 267.323 261.514C267.336 261.487 267.343 260.567 267.343 258.753C267.33 256.952 267.317 255.998 267.304 255.891C267.225 255.518 267.094 255.238 266.911 255.051C266.728 254.864 266.571 254.751 266.44 254.711C266.309 254.671 266.139 254.658 265.93 254.671C265.341 254.671 264.824 254.898 264.379 255.351C264.025 255.711 263.803 256.078 263.711 256.452C263.62 256.825 263.567 257.379 263.554 258.113V259.393V260.594C263.554 260.994 263.561 261.261 263.574 261.394C263.587 261.527 263.607 261.614 263.633 261.654C263.659 261.694 263.718 261.734 263.81 261.774C264.084 261.814 264.405 261.834 264.771 261.834H265.085V262.755H264.928L264.477 262.735C264.163 262.721 263.829 262.715 263.476 262.715C263.122 262.715 262.874 262.708 262.73 262.695C261.382 262.695 260.649 262.715 260.531 262.755H260.374V261.834H260.688Z" fill="black"/>
<path d="M277.59 250.569C277.59 250.195 277.708 249.902 277.943 249.689C278.179 249.475 278.467 249.368 278.807 249.368C279.108 249.395 279.37 249.508 279.592 249.709C279.814 249.909 279.926 250.195 279.926 250.569C279.926 250.969 279.814 251.269 279.592 251.469C279.37 251.669 279.095 251.77 278.768 251.77C278.44 251.77 278.166 251.669 277.943 251.469C277.721 251.269 277.603 250.969 277.59 250.569ZM281.084 262.755C280.888 262.715 280.207 262.695 279.042 262.695C278.898 262.695 278.656 262.695 278.316 262.695C277.976 262.695 277.649 262.708 277.335 262.735L276.903 262.755H276.746V261.834H277.06C277.426 261.834 277.747 261.814 278.022 261.774C278.139 261.721 278.211 261.648 278.238 261.554C278.264 261.461 278.277 261.181 278.277 260.714V258.653V256.892C278.277 256.198 278.264 255.758 278.238 255.571C278.211 255.385 278.12 255.258 277.963 255.191C277.78 255.098 277.472 255.051 277.04 255.051H276.824V254.591C276.824 254.284 276.837 254.131 276.863 254.131L277.06 254.111C277.191 254.097 277.374 254.084 277.609 254.071C277.845 254.057 278.081 254.044 278.316 254.031C278.539 254.017 278.774 254.004 279.023 253.991C279.271 253.977 279.461 253.957 279.592 253.931C279.723 253.904 279.795 253.897 279.808 253.911H279.867V261.514C279.932 261.648 280.011 261.728 280.102 261.754C280.194 261.781 280.423 261.808 280.789 261.834H281.241V262.755H281.084Z" fill="black"/>
<path d="M282.497 261.834H282.772C283.282 261.834 283.59 261.741 283.695 261.554V261.394C283.695 261.274 283.695 261.121 283.695 260.934C283.695 260.747 283.695 260.54 283.695 260.314C283.695 260.087 283.701 259.827 283.714 259.533C283.727 259.24 283.727 258.96 283.714 258.693C283.714 258.279 283.714 257.839 283.714 257.372C283.714 256.905 283.708 256.512 283.695 256.192V255.731C283.655 255.478 283.564 255.311 283.42 255.231C283.276 255.151 282.981 255.091 282.537 255.051H282.183V254.591C282.183 254.284 282.196 254.131 282.222 254.131L282.419 254.111C282.55 254.097 282.733 254.084 282.968 254.071C283.204 254.057 283.446 254.044 283.695 254.031C283.917 254.017 284.153 254.004 284.401 253.991C284.65 253.977 284.84 253.957 284.971 253.931C285.102 253.904 285.173 253.897 285.187 253.911H285.245V254.711C285.245 255.218 285.252 255.471 285.265 255.471C285.278 255.471 285.311 255.438 285.363 255.371C285.416 255.305 285.494 255.204 285.599 255.071C285.703 254.938 285.828 254.818 285.972 254.711C286.116 254.604 286.305 254.477 286.541 254.331C286.777 254.184 287.025 254.077 287.287 254.011C287.549 253.944 287.882 253.911 288.288 253.911C289.78 253.964 290.611 254.718 290.781 256.172C290.794 256.265 290.801 257.192 290.801 258.953V260.674C290.801 261.181 290.814 261.481 290.84 261.574C290.866 261.668 290.938 261.734 291.056 261.774C291.331 261.814 291.651 261.834 292.018 261.834H292.332V262.755H292.175L291.704 262.735C291.403 262.721 291.076 262.715 290.722 262.715C290.369 262.715 290.12 262.708 289.976 262.695C288.628 262.695 287.896 262.715 287.778 262.755H287.621V261.834H287.935C288.733 261.834 289.132 261.728 289.132 261.514C289.145 261.487 289.152 260.567 289.152 258.753C289.139 256.952 289.126 255.998 289.113 255.891C289.034 255.518 288.903 255.238 288.72 255.051C288.537 254.864 288.38 254.751 288.249 254.711C288.118 254.671 287.948 254.658 287.738 254.671C287.15 254.671 286.633 254.898 286.188 255.351C285.834 255.711 285.612 256.078 285.52 256.452C285.429 256.825 285.376 257.379 285.363 258.113V259.393V260.594C285.363 260.994 285.37 261.261 285.383 261.394C285.396 261.527 285.416 261.614 285.442 261.654C285.468 261.694 285.527 261.734 285.618 261.774C285.893 261.814 286.214 261.834 286.58 261.834H286.894V262.755H286.737L286.286 262.735C285.972 262.721 285.638 262.715 285.285 262.715C284.931 262.715 284.683 262.708 284.539 262.695C283.191 262.695 282.458 262.715 282.34 262.755H282.183V261.834H282.497Z" fill="black"/>
</g>
<g clip-path="url(#clip2_21_37)">
<path d="M35.6288 145.387C35.6471 145.33 35.6653 145.255 35.6835 145.161C35.7018 145.066 35.7473 144.859 35.8202 144.538C35.8931 144.217 35.9843 143.925 36.0936 143.661C36.203 143.397 36.3397 143.085 36.5038 142.727C36.6678 142.368 36.8501 142.085 37.0506 141.878C37.2511 141.67 37.488 141.463 37.7615 141.255C38.0349 141.048 38.3356 140.963 38.6637 141C40.0308 141 40.9057 141.604 41.2885 142.812L41.5619 142.557C42.692 141.519 43.7674 141 44.7881 141C45.9729 141 46.9025 141.444 47.5769 142.331C48.2513 143.217 48.5885 144.293 48.5885 145.557C48.5885 147.594 47.8959 149.472 46.5106 151.189C45.1253 152.906 43.5578 153.773 41.8079 153.792C41.4069 153.792 41.0515 153.736 40.7416 153.622C40.5411 153.528 40.3315 153.387 40.1128 153.198C39.8941 153.009 39.7209 152.849 39.5933 152.717L39.4019 152.49C39.3837 152.509 39.1832 153.33 38.8004 154.953C38.4176 156.575 38.2263 157.396 38.2263 157.415C38.2263 157.528 38.2992 157.594 38.445 157.613C38.5908 157.632 38.928 157.66 39.4566 157.698H40.1401C40.2495 157.83 40.3042 157.915 40.3042 157.952C40.3042 157.99 40.2768 158.16 40.2221 158.462C40.1675 158.688 40.1128 158.83 40.0581 158.886C40.0034 158.943 39.8849 158.981 39.7027 159C39.6662 159 39.566 159 39.4019 159C39.2379 159 38.928 158.99 38.4723 158.971C38.0166 158.952 37.4516 158.943 36.7772 158.943C35.5013 158.943 34.6901 158.962 34.3438 159H34.1251C33.9975 158.868 33.9337 158.764 33.9337 158.688C33.9702 158.179 34.0886 157.849 34.2891 157.698H34.836C35.4557 157.679 35.8111 157.566 35.9023 157.358C35.9569 157.245 36.5129 154.99 37.5701 150.594C38.6273 146.198 39.1832 143.868 39.2379 143.604C39.2561 143.51 39.2652 143.378 39.2652 143.208C39.2652 142.434 39.0374 142.048 38.5817 142.048C38.1807 142.048 37.8435 142.312 37.5701 142.84C37.2967 143.368 37.087 143.944 36.9412 144.566C36.7954 145.189 36.686 145.528 36.6131 145.585C36.5767 145.623 36.4309 145.642 36.1757 145.642H35.7929C35.6835 145.528 35.6288 145.444 35.6288 145.387ZM39.8667 150.623C40.2677 152.056 40.9421 152.773 41.89 152.773C42.4368 152.773 42.9654 152.556 43.4757 152.123C43.9861 151.689 44.4053 151.141 44.7334 150.481C45.0615 149.84 45.3896 148.821 45.7177 147.425C46.0458 146.028 46.219 144.991 46.2372 144.312V144.142C46.2372 142.746 45.6813 142.048 44.5694 142.048C44.3689 142.048 44.1684 142.076 43.9679 142.132C43.7674 142.189 43.5669 142.274 43.3664 142.387C43.1659 142.5 42.9836 142.623 42.8196 142.755C42.6555 142.887 42.5006 143.029 42.3548 143.18C42.2089 143.33 42.0722 143.472 41.9446 143.604C41.817 143.736 41.7168 143.868 41.6439 144C41.571 144.132 41.4981 144.227 41.4252 144.283L41.3431 144.396C41.3431 144.415 41.3158 144.547 41.2611 144.793C41.2064 145.038 41.1062 145.453 40.9604 146.038C40.8145 146.623 40.6869 147.113 40.5776 147.51C40.1037 149.509 39.8667 150.547 39.8667 150.623Z" fill="black"/>
<path d="M50.4474 156.834H50.718C51.2206 156.834 51.5234 156.741 51.6265 156.554V156.394C51.6265 156.274 51.6265 156.12 51.6265 155.934C51.6265 155.747 51.6265 155.54 51.6265 155.313C51.6265 155.087 51.6329 154.826 51.6458 154.533C51.6587 154.24 51.6587 153.959 51.6458 153.693C51.6458 153.279 51.6458 152.839 51.6458 152.372C51.6458 151.905 51.6394 151.512 51.6265 151.192V150.731C51.5878 150.478 51.4976 150.311 51.3559 150.231C51.2141 150.151 50.9242 150.091 50.486 150.051H50.1381V149.591C50.1381 149.284 50.151 149.131 50.1767 149.131L50.37 149.111C50.4989 149.097 50.6793 149.084 50.9113 149.071C51.1432 149.057 51.3816 149.044 51.6265 149.031C51.8456 149.017 52.0775 149.004 52.3224 148.991C52.5672 148.977 52.7541 148.957 52.883 148.931C53.0118 148.904 53.0827 148.897 53.0956 148.911H53.1536V149.711C53.1536 150.218 53.16 150.471 53.1729 150.471C53.1858 150.471 53.218 150.438 53.2696 150.371C53.3211 150.304 53.3984 150.204 53.5015 150.071C53.6046 149.938 53.727 149.818 53.8688 149.711C54.0105 149.604 54.1974 149.477 54.4294 149.331C54.6613 149.184 54.9062 149.077 55.1639 149.011C55.4216 148.944 55.7503 148.911 56.1497 148.911C56.343 148.911 56.5235 148.924 56.691 148.951C56.8585 148.977 57.0067 149.017 57.1356 149.071C57.2645 149.124 57.3869 149.177 57.5029 149.231C57.6188 149.284 57.7155 149.344 57.7928 149.411C57.8701 149.477 57.941 149.551 58.0054 149.631C58.0699 149.711 58.1279 149.784 58.1794 149.851C58.231 149.918 58.2761 149.991 58.3147 150.071C58.3534 150.151 58.3792 150.218 58.392 150.271C58.4049 150.325 58.4243 150.378 58.45 150.431L58.4887 150.531L58.5467 150.451C58.5853 150.398 58.624 150.345 58.6627 150.291C58.7013 150.238 58.7593 150.164 58.8366 150.071C58.914 149.978 58.9977 149.891 59.0879 149.811C59.1781 149.731 59.2748 149.644 59.3779 149.551C59.481 149.457 59.6098 149.377 59.7645 149.311C59.9191 149.244 60.0673 149.177 60.2091 149.111C60.3508 149.044 60.5184 148.997 60.7117 148.971C60.905 148.944 61.1047 148.924 61.3109 148.911C62.9346 148.911 63.8174 149.664 63.9591 151.172C63.972 151.265 63.9785 152.192 63.9785 153.953V155.673C63.9785 156.18 63.9913 156.48 64.0171 156.574C64.0429 156.667 64.1138 156.734 64.2297 156.774C64.5004 156.814 64.8161 156.834 65.1769 156.834H65.4862V157.754H65.3316L64.887 157.734C64.5777 157.721 64.2491 157.714 63.9011 157.714C63.5532 157.714 63.3083 157.708 63.1666 157.694C61.8393 157.694 61.1176 157.714 61.0016 157.754H60.847V156.834H61.1563C61.9423 156.834 62.3354 156.727 62.3354 156.514C62.3483 156.487 62.3547 155.567 62.3547 153.753C62.3418 151.952 62.3289 150.998 62.3161 150.891C62.2387 150.518 62.1099 150.238 61.9295 150.051C61.749 149.864 61.5944 149.751 61.4655 149.711C61.3367 149.671 61.1691 149.658 60.963 149.671C60.383 149.671 59.874 149.898 59.4359 150.351C59.0879 150.711 58.8689 151.078 58.7786 151.452C58.6884 151.825 58.6369 152.379 58.624 153.112V154.393V155.593C58.624 155.994 58.6304 156.26 58.6433 156.394C58.6562 156.527 58.6756 156.614 58.7013 156.654C58.7271 156.694 58.7851 156.734 58.8753 156.774C59.1459 156.814 59.4616 156.834 59.8225 156.834H60.1318V157.754H59.9771L59.5132 157.734C59.2168 157.721 58.8946 157.714 58.5467 157.714C58.1987 157.714 57.9539 157.708 57.8121 157.694C56.4848 157.694 55.7631 157.714 55.6472 157.754H55.4925V156.834H55.8018C56.5879 156.834 56.9809 156.727 56.9809 156.514C56.9938 156.487 57.0003 155.567 57.0003 153.753C56.9874 151.952 56.9745 150.998 56.9616 150.891C56.8843 150.518 56.7554 150.238 56.575 150.051C56.3946 149.864 56.24 149.751 56.1111 149.711C55.9822 149.671 55.8147 149.658 55.6085 149.671C55.0286 149.671 54.5196 149.898 54.0814 150.351C53.7335 150.711 53.5144 151.078 53.4242 151.452C53.334 151.825 53.2824 152.379 53.2696 153.112V154.393V155.593C53.2696 155.994 53.276 156.26 53.2889 156.394C53.3018 156.527 53.3211 156.614 53.3469 156.654C53.3727 156.694 53.4306 156.734 53.5208 156.774C53.7915 156.814 54.1072 156.834 54.468 156.834H54.7773V157.754H54.6227L54.1781 157.734C53.8688 157.721 53.5402 157.714 53.1922 157.714C52.8443 157.714 52.5994 157.708 52.4577 157.694C51.1304 157.694 50.4087 157.714 50.2927 157.754H50.1381V156.834H50.4474Z" fill="black"/>
<path d="M68.4051 151.652C68.4051 151.652 68.2633 151.652 67.9798 151.652C67.6963 151.652 67.4579 151.552 67.2646 151.352C67.0713 151.152 66.9746 150.891 66.9746 150.571C66.9746 150.104 67.1937 149.691 67.6319 149.331C68.07 148.971 68.8497 148.791 69.9708 148.791C70.9115 148.791 71.6719 149.004 72.2518 149.431C72.8317 149.858 73.2183 150.365 73.4116 150.951C73.476 151.138 73.5082 151.345 73.5082 151.572C73.5082 151.798 73.5147 152.565 73.5275 153.873V155.273C73.5275 155.914 73.5598 156.354 73.6242 156.594C73.6886 156.834 73.8239 156.954 74.0301 156.954C74.2234 156.954 74.3523 156.847 74.4167 156.634C74.4812 156.42 74.5134 156.067 74.5134 155.573V154.853H75.2866V155.633C75.2737 156.167 75.2544 156.48 75.2286 156.574C75.1126 156.974 74.8871 157.287 74.552 157.514C74.217 157.741 73.8626 157.861 73.4889 157.874C73.1152 157.888 72.8123 157.768 72.5804 157.514C72.3484 157.261 72.1938 156.981 72.1164 156.674V156.594L72.0778 156.654C72.052 156.694 72.0198 156.734 71.9811 156.774C71.9425 156.814 71.8909 156.874 71.8265 156.954C71.7621 157.034 71.6847 157.107 71.5945 157.174C71.5043 157.241 71.4077 157.321 71.3046 157.414C71.2015 157.508 71.0855 157.581 70.9566 157.634C70.8278 157.688 70.686 157.741 70.5314 157.794C70.3767 157.848 70.2092 157.888 70.0288 157.914C69.8484 157.941 69.6486 157.961 69.4296 157.974C68.6564 157.974 67.9605 157.768 67.3419 157.354C66.7233 156.941 66.4141 156.36 66.4141 155.613C66.4141 155.333 66.4592 155.067 66.5494 154.813C66.6396 154.56 66.8135 154.286 67.0713 153.993C67.329 153.699 67.6383 153.453 67.9991 153.252C68.36 153.052 68.8625 152.866 69.5069 152.692C70.1512 152.519 70.86 152.419 71.6332 152.392H71.9038V151.952C71.9038 151.498 71.8652 151.165 71.7878 150.951C71.5043 150.004 70.8793 149.531 69.9128 149.531C69.6808 149.531 69.4618 149.538 69.2556 149.551C69.0494 149.564 68.8883 149.591 68.7723 149.631C68.6564 149.671 68.6048 149.691 68.6177 149.691C68.9012 149.891 69.043 150.184 69.043 150.571C69.043 150.905 68.9399 151.165 68.7337 151.352L68.4051 151.652ZM68.1924 155.633C68.1924 156.047 68.3471 156.414 68.6564 156.734C68.9656 157.054 69.3458 157.221 69.7968 157.234C70.2865 157.234 70.7182 157.081 71.0919 156.774C71.4657 156.467 71.717 156.067 71.8458 155.573C71.8716 155.48 71.8909 155.04 71.9038 154.253C71.9038 153.479 71.8974 153.092 71.8845 153.092C71.7814 153.092 71.6461 153.099 71.4786 153.112C71.311 153.126 71.0211 153.186 70.6087 153.292C70.1963 153.399 69.8226 153.533 69.4875 153.693C69.1525 153.853 68.8561 154.099 68.5984 154.433C68.3406 154.766 68.2053 155.167 68.1924 155.633Z" fill="black"/>
<path d="M79.3073 157.754C79.1526 157.714 78.5147 157.694 77.3936 157.694C76.4142 157.694 75.8665 157.714 75.7505 157.754H75.6345V156.834H75.9052C76.2016 156.821 76.4722 156.781 76.717 156.714C76.9619 156.647 77.1487 156.587 77.2776 156.534C77.4065 156.48 77.5675 156.367 77.7609 156.194C77.9542 156.02 78.0701 155.9 78.1088 155.834C78.1475 155.767 78.2828 155.593 78.5147 155.313C78.7467 155.033 78.8756 154.846 78.9013 154.753L79.7905 153.553L78.6694 151.992C78.5534 151.818 78.431 151.638 78.3021 151.452C78.1732 151.265 78.0701 151.125 77.9928 151.031C77.9155 150.938 77.8446 150.838 77.7802 150.731C77.7157 150.625 77.6578 150.545 77.6062 150.491C77.5547 150.438 77.516 150.391 77.4902 150.351C77.4645 150.311 77.4194 150.271 77.3549 150.231C77.2905 150.191 77.2518 150.171 77.2389 150.171C77.2261 150.171 77.1874 150.158 77.123 150.131C77.0585 150.104 77.007 150.091 76.9683 150.091C76.891 150.091 76.659 150.078 76.2724 150.051H75.7312V149.131H75.8665C76.3304 149.157 76.9941 149.171 77.8575 149.171C79.056 149.171 79.7196 149.157 79.8485 149.131H80.0031V150.051C79.5392 150.104 79.3073 150.211 79.3073 150.371C79.3073 150.398 79.3717 150.505 79.5006 150.691C79.6294 150.878 79.8098 151.132 80.0418 151.452C80.2738 151.772 80.4606 152.045 80.6024 152.272L80.6797 152.352L81.163 151.672C81.5753 151.125 81.7815 150.765 81.7815 150.591C81.7815 150.511 81.7686 150.438 81.7429 150.371C81.7171 150.304 81.6849 150.258 81.6462 150.231C81.6075 150.204 81.5753 150.178 81.5496 150.151C81.5238 150.124 81.4787 150.098 81.4142 150.071L81.3563 150.051H81.2596V149.131H81.3949C81.5882 149.171 82.2261 149.191 83.3086 149.191C84.3267 149.191 84.8743 149.171 84.9517 149.131H85.0676V150.051H84.9323C84.3009 150.051 83.779 150.164 83.3666 150.391C83.1475 150.498 82.9284 150.678 82.7094 150.931C82.4903 151.185 82.0715 151.745 81.4529 152.612L81.1436 153.032L82.3421 154.733C83.1926 155.934 83.6501 156.56 83.7145 156.614C83.779 156.667 83.8885 156.714 84.0431 156.754C84.2751 156.807 84.6166 156.834 85.0676 156.834H85.3963V157.754H85.2803H85.1256C85.0225 157.741 84.8937 157.734 84.739 157.734C84.5844 157.734 84.4233 157.728 84.2558 157.714C84.0883 157.701 83.9272 157.701 83.7725 157.714C83.6179 157.728 83.5019 157.721 83.4246 157.694C83.2828 157.694 83.0444 157.694 82.7094 157.694C82.3743 157.694 82.0521 157.708 81.7429 157.734L81.2983 157.754H81.1243V156.834H81.1823C81.324 156.834 81.4658 156.801 81.6075 156.734C81.7493 156.667 81.8202 156.587 81.8202 156.494C81.8202 156.467 81.5624 156.087 81.047 155.353L80.2544 154.253C80.2416 154.266 80.0418 154.546 79.6552 155.093C79.2686 155.64 79.0495 155.94 78.998 155.994C78.9464 156.06 78.9207 156.154 78.9207 156.274C78.9207 156.42 78.9658 156.547 79.056 156.654C79.1462 156.761 79.2622 156.821 79.4039 156.834C79.4297 156.834 79.4426 156.987 79.4426 157.294V157.754H79.3073Z" fill="black"/>
</g>
</g>
<defs>
<clipPath id="clip0_21_37">
<rect width="622" height="283" fill="white"/>
</clipPath>
<clipPath id="clip1_21_37">
<rect width="49" height="18" fill="white" transform="translate(245 246)"/>
</clipPath>
<clipPath id="clip2_21_37">
<rect width="52" height="18" fill="white" transform="translate(35 141)"/>
</clipPath>
</defs>
</svg>
